<svg version="1.1" id="Layer_1" xmlns="http://www.w3.org/2000/svg" xmlns:xlink="http://www.w3.org/1999/xlink" x="0px" y="0px"
	  width="1024" height="276.742" viewBox="0 0 1024 276.742" enable-background="new 0 0 239 172" xml:space="preserve">
<path fill="#020202" opacity="1.000000" stroke="none" 
	d="
M161.000000,173.000000 
	C107.333336,173.000000 54.166672,173.000000 1.000007,173.000000 
	C1.000005,115.666672 1.000005,58.333347 1.000002,1.000015 
	C80.666656,1.000010 160.333313,1.000010 239.999969,1.000005 
	C239.999985,58.333317 239.999985,115.666634 240.000000,172.999969 
	C213.833328,173.000000 187.666672,173.000000 161.000000,173.000000 
M35.216679,17.332321 
	C34.836685,18.878220 34.456688,20.424120 34.275574,22.630972 
	C35.548023,23.927347 36.820469,25.223724 38.153877,27.261187 
	C38.178139,27.756248 38.202404,28.251310 38.186157,29.274412 
	C38.417034,29.526777 38.647911,29.779142 39.269379,30.500547 
	C39.833332,30.577936 40.397285,30.655323 40.823120,31.414209 
	C40.549877,32.274620 40.276630,33.135029 39.377754,33.937096 
	C39.044426,34.312191 38.711102,34.687286 38.209999,35.792053 
	C39.223919,38.891273 40.847706,41.928619 38.351139,45.166779 
	C37.924725,45.719860 38.430733,46.991825 38.285637,48.484444 
	C38.574104,48.975277 38.862572,49.466110 39.233570,50.807526 
	C39.208035,52.217548 39.182495,53.627571 38.821560,55.470181 
	C38.808159,56.009426 38.794758,56.548668 38.347153,57.796951 
	C37.535526,61.189407 35.883911,64.664291 36.205898,67.945503 
	C36.422623,70.154076 39.052494,72.975700 41.282291,73.922089 
	C44.078789,75.108986 46.632267,73.792564 47.002056,69.822235 
	C47.155453,68.175217 48.696106,66.493813 49.954639,65.156166 
	C51.413696,63.605396 53.256210,62.415401 55.654404,61.339539 
	C57.397366,63.301517 59.140331,65.263496 60.926197,67.670624 
	C60.926197,67.670624 61.277866,67.946884 61.272202,68.638130 
	C62.406399,70.618309 63.540592,72.598495 64.659988,75.152382 
	C65.002670,75.802757 65.345352,76.453133 65.655159,77.941208 
	C65.708389,79.611702 65.761627,81.282196 65.484367,83.567329 
	C65.615929,85.691681 65.747490,87.816040 65.177170,90.032661 
	C64.267258,90.419914 62.957031,90.550499 62.515991,91.238373 
	C60.493454,94.392845 54.146461,93.206291 54.376652,99.419594 
	C54.864704,100.720863 55.352757,102.022141 56.029968,103.929794 
	C56.828762,104.598969 57.627552,105.268143 58.700047,106.494804 
	C58.964336,107.040382 59.228626,107.585960 58.847473,108.402481 
	C54.353050,112.368584 54.582413,115.013794 60.098846,122.690704 
	C62.383343,126.173447 64.667847,129.656204 67.281990,133.746460 
	C68.152519,133.958038 69.023048,134.169601 70.428574,134.840714 
	C73.306160,135.355804 76.183746,135.870895 79.748383,136.750809 
	C80.516243,136.766632 81.284111,136.782471 82.514778,137.161926 
	C83.545212,137.037842 84.575645,136.913773 86.359055,136.699020 
	C85.012749,134.618134 84.072701,133.165176 83.060837,131.155640 
	C82.673027,130.783752 82.285217,130.411880 81.710579,129.388885 
	C79.603317,127.719688 77.655190,127.568489 75.227760,130.085022 
	C74.491318,130.038345 73.754883,129.991669 72.875809,129.326309 
	C72.292694,128.499008 71.709587,127.671715 71.041740,126.967285 
	C71.041740,126.967285 71.162476,126.879539 71.069672,126.301926 
	C70.358650,125.690178 69.647636,125.078423 68.630867,123.866348 
	C67.517120,122.862465 66.403374,121.858582 65.224411,120.050133 
	C64.961998,118.069695 64.699577,116.089264 64.437164,114.108826 
	C66.318550,115.039001 68.156181,116.075661 70.092789,116.871468 
	C72.340202,117.794983 74.674500,118.507095 77.487045,119.456055 
	C77.975670,119.258736 78.464294,119.061417 79.658707,118.971794 
	C80.097679,118.818085 80.536659,118.664375 81.515602,118.550766 
	C81.997185,118.329475 82.478767,118.108185 83.696198,117.910042 
	C85.482468,117.226074 87.268730,116.542114 89.992859,115.499046 
	C87.054710,113.044464 84.845116,111.198524 82.431725,109.182335 
	C84.679298,108.031166 86.845779,106.921532 89.592010,106.112152 
	C90.417305,106.324684 91.242599,106.537224 92.589554,107.250381 
	C95.743568,108.002701 98.897583,108.755028 102.664467,109.848816 
	C103.124931,109.844086 103.585388,109.839363 104.603470,110.258026 
	C105.751686,110.351334 106.899910,110.444633 108.755531,110.848907 
	C109.520111,110.830811 110.284691,110.812706 111.682037,111.160599 
	C114.109947,111.070160 116.537865,110.979721 119.820038,111.058815 
	C121.528030,110.818718 123.236023,110.578621 125.597565,110.595421 
	C126.720894,110.363480 127.844231,110.131538 129.753448,110.039688 
	C131.838165,109.679596 133.922867,109.319496 136.575989,109.270859 
	C137.726089,109.830193 138.876205,110.389519 140.273239,111.395088 
	C140.554108,111.577492 140.834991,111.759895 141.251892,112.598587 
	C143.458725,115.135910 145.665558,117.673233 148.104996,120.817856 
	C149.374832,121.974518 150.644669,123.131172 152.150238,124.859245 
	C153.113892,125.175453 154.077530,125.491669 155.518524,126.291153 
	C157.052200,126.576187 158.585892,126.861221 160.712204,127.503723 
	C161.162140,127.571976 161.612076,127.640228 162.312057,128.086014 
	C162.882553,128.088150 163.453033,128.090286 164.681229,128.427399 
	C168.176041,130.273621 171.670837,132.119843 175.190201,134.620087 
	C175.842346,135.734787 176.494507,136.849472 177.190140,138.653687 
	C177.392532,139.064117 177.594925,139.474548 177.560196,140.417740 
	C177.812515,140.919968 178.064835,141.422195 178.286057,142.616959 
	C178.462708,143.040375 178.639359,143.463806 178.574493,144.409424 
	C178.767944,144.927017 178.961395,145.444595 179.097198,146.633713 
	C179.238205,147.056000 179.379211,147.478287 179.326294,148.567795 
	C179.952011,150.028351 180.577728,151.488892 181.072403,153.743759 
	C181.236420,154.794189 181.400436,155.844620 181.350113,157.445908 
	C182.382797,157.736481 183.415497,158.027069 184.912170,157.795883 
	C185.854279,155.554230 186.796402,153.312576 187.155075,150.531372 
	C186.507889,148.230942 185.860703,145.930527 185.118042,143.038086 
	C184.688446,142.373001 184.258835,141.707916 183.912338,140.413177 
	C183.460495,139.717209 183.008652,139.021225 182.471008,137.713211 
	C182.182678,137.169662 181.894333,136.626114 181.638779,135.320114 
	C180.683182,131.966568 179.727600,128.613022 178.789719,124.750229 
	C178.613586,124.471619 178.437439,124.193008 178.269287,123.266617 
	C176.838074,122.816284 175.406845,122.365959 173.235306,121.726585 
	C171.725037,121.659119 170.214752,121.591652 168.320984,121.020340 
	C167.594421,120.620827 166.867874,120.221306 166.023163,119.950424 
	C166.023163,119.950424 166.169998,119.855850 166.075104,119.106590 
	C165.638748,116.773758 161.782135,114.414848 166.947388,112.399345 
	C168.957245,112.457100 170.967102,112.514862 173.781113,112.862656 
	C175.200760,112.849106 176.620392,112.835556 178.340912,113.127037 
	C178.892197,113.078224 179.443481,113.029404 180.650574,113.287292 
	C195.741699,118.566521 199.562012,132.100342 203.659225,145.431366 
	C204.166931,145.594955 204.674622,145.758545 205.182327,145.922134 
	C206.709885,143.288864 208.237442,140.655594 209.740921,137.406036 
	C209.063889,136.970459 208.386841,136.534897 207.728531,135.360504 
	C207.385498,134.270279 207.042480,133.180038 206.557144,131.475967 
	C205.795410,130.770645 205.033676,130.065323 204.149017,128.730072 
	C202.979187,127.164093 201.809357,125.598106 200.530914,123.401230 
	C199.817154,122.347351 199.103394,121.293465 198.385696,119.737167 
	C198.165192,119.499580 197.944687,119.261986 197.694977,118.445839 
	C197.380783,117.990585 197.066605,117.535332 196.687469,116.376183 
	C194.082489,111.468086 193.407761,104.359322 184.574234,105.707764 
	C184.039001,105.596237 183.503769,105.484718 182.404221,104.947884 
	C180.462921,103.317635 178.521606,101.687386 176.508484,99.447853 
	C176.094894,98.784798 175.681305,98.121750 175.284195,96.952751 
	C174.968658,96.600708 174.653122,96.248672 174.253342,95.304489 
	C173.888351,94.843369 173.523376,94.382248 173.110367,93.216393 
	C171.454208,91.054474 169.798065,88.892555 167.855957,86.064949 
	C166.378113,84.749374 164.900284,83.433800 164.000076,81.369461 
	C164.266022,81.200211 164.531952,81.030960 165.503876,81.171661 
	C167.002701,81.450493 168.501526,81.729317 170.495102,82.467537 
	C173.665665,85.310860 176.836212,88.154190 180.131271,91.633011 
	C180.629028,92.317406 181.126770,93.001793 181.830811,94.413734 
	C183.358063,95.655495 184.885330,96.897247 186.520935,98.087349 
	C186.520935,98.087349 186.241089,98.347923 185.793335,98.791138 
	C186.192184,99.157677 186.591019,99.524223 187.789505,99.803352 
	C188.202820,98.625687 188.616119,97.448013 189.451752,96.889633 
	C194.124664,100.195786 198.815720,103.454453 205.647507,103.047630 
	C206.032303,102.856674 206.417084,102.665718 206.801880,102.474754 
	C206.213150,102.286530 205.624420,102.098305 204.832016,101.265083 
	C203.938858,100.196899 203.045685,99.128716 202.922882,98.063889 
	C203.899277,98.014626 204.875671,97.965363 206.635742,97.876564 
	C204.340271,96.588478 202.718460,95.678406 201.030075,94.091400 
	C195.875870,88.794617 191.123428,83.011139 185.457687,78.334000 
	C179.445938,73.371193 172.283417,72.537636 164.395294,76.230453 
	C163.606964,76.534233 162.818634,76.838013 161.131805,77.152405 
	C158.743408,77.164963 156.355026,77.177521 153.455795,76.776009 
	C152.624802,76.555092 151.793793,76.334183 150.422012,75.650269 
	C148.605026,75.154877 146.788040,74.659485 144.668900,73.837776 
	C144.122253,73.936409 143.575607,74.035042 142.172882,74.011002 
	C137.475891,74.513046 132.778900,75.015091 127.273224,75.208588 
	C124.482681,75.010925 121.692131,74.813263 118.328842,74.238968 
	C117.876007,74.208618 117.423172,74.178268 116.487587,73.634270 
	C113.972366,72.847710 111.457146,72.061150 108.587700,70.886368 
	C108.255074,70.804611 107.922447,70.722855 107.261375,70.095329 
	C106.477180,69.819221 105.692986,69.543106 104.555847,68.710075 
	C104.167091,68.523750 103.778328,68.337418 103.714546,67.365959 
	C105.733505,66.970207 107.752464,66.574455 109.168182,66.296951 
	C103.638527,62.886417 98.109192,59.476086 92.538925,56.040508 
	C93.741364,54.037350 94.444687,52.865662 95.357391,51.345161 
	C93.582108,51.211849 92.288162,51.114681 90.494026,50.552891 
	C87.570137,49.048946 84.474663,47.792545 81.795563,45.935463 
	C80.478172,45.022274 79.931870,42.996670 79.036629,41.474472 
	C77.311806,39.698956 74.792595,38.423279 72.132187,37.608852 
	C68.116791,36.379635 64.002869,35.472313 59.139488,34.211483 
	C57.803795,34.427231 56.468102,34.642979 54.441727,34.542915 
	C52.123055,32.450962 50.992302,27.923019 45.635128,31.618805 
	C46.265797,29.336266 46.583683,28.185760 46.913841,26.350513 
	C46.272026,25.723719 45.630215,25.096924 44.689941,24.066107 
	C44.133610,23.704714 43.577278,23.343321 42.690903,22.615665 
	C42.457645,22.383673 42.234661,22.142193 41.745808,21.362528 
	C41.174999,21.229986 40.604187,21.097445 39.690216,20.400478 
	C38.801403,19.893076 37.912590,19.385675 36.999004,18.281755 
	C36.628178,17.874659 36.257347,17.467564 35.216679,17.332321 
z"/>
<path fill="#FEFEFE" opacity="1.000000" stroke="none" 
	d="
M141.115860,111.942299 
	C140.834991,111.759895 140.554108,111.577492 140.141022,110.844589 
	C138.675049,109.849197 137.341324,109.404297 136.007584,108.959396 
	C133.922867,109.319496 131.838165,109.679596 129.169891,109.721794 
	C127.372215,109.715439 126.158119,110.026985 124.944016,110.338531 
	C123.236023,110.578621 121.528030,110.818718 119.238861,110.732086 
	C118.114342,110.253693 117.570999,110.102028 117.055283,109.605698 
	C119.283867,105.557236 123.559975,102.520546 120.545456,97.770851 
	C122.518135,97.770851 124.605759,98.424171 125.585861,97.658951 
	C130.079315,94.150665 127.093468,90.316132 124.845230,87.029259 
	C127.647797,86.403366 129.690521,85.947166 131.733246,85.490959 
	C131.646057,84.741020 131.558853,83.991081 131.471664,83.241135 
	C128.315353,83.496025 125.159050,83.750908 122.001831,83.589813 
	C122.247231,79.187386 121.176224,77.355377 116.520729,78.493713 
	C113.715508,79.179642 110.514343,78.246262 106.650612,77.983353 
	C107.769768,75.716896 108.456627,74.325905 109.494225,72.986450 
	C112.220093,73.407967 114.595215,73.777939 116.970337,74.147919 
	C117.423172,74.178268 117.876007,74.208618 118.748871,74.743408 
	C122.138893,75.370956 124.987656,79.506775 128.081909,75.517136 
	C132.778900,75.015091 137.475891,74.513046 142.725342,74.298210 
	C143.842224,74.444977 144.406631,74.304535 144.971054,74.164093 
	C146.788040,74.659485 148.605026,75.154877 150.718948,76.187408 
	C151.999466,76.879723 152.983047,77.034897 153.966629,77.190079 
	C156.355026,77.177521 158.743408,77.164963 161.724304,77.368332 
	C162.822617,77.680771 163.328430,77.777283 164.266922,77.909683 
	C167.471024,77.989090 170.689438,77.449409 170.000351,82.008148 
	C168.501526,81.729317 167.002701,81.450493 164.932190,80.853683 
	C163.673462,80.591606 162.986389,80.647499 162.299332,80.703392 
	C162.673706,81.175003 163.048065,81.646614 163.422440,82.118225 
	C164.900284,83.433800 166.378113,84.749374 167.979218,86.774124 
	C168.649918,88.748436 169.197357,90.013580 169.631424,91.016678 
	C167.291229,92.070129 165.199860,93.011559 162.744171,93.965263 
	C161.893829,93.977753 161.407806,93.977966 160.648712,93.707962 
	C157.604355,93.624969 154.833038,93.812195 151.665375,94.000336 
	C150.476501,94.016029 149.683990,94.030800 148.522461,94.056641 
	C146.890762,94.067703 145.628082,94.067703 144.063156,94.067703 
	C144.529816,100.792892 144.992340,107.458397 145.104645,114.049110 
	C143.541565,113.296982 142.328705,112.619637 141.115860,111.942299 
M143.933945,82.637939 
	C143.855835,81.509338 143.777725,80.380737 143.699615,79.252136 
	C143.637283,79.277351 143.574966,79.302559 143.512634,79.327766 
	C143.512634,82.984093 143.512634,86.640419 143.512634,90.296745 
	C143.944519,90.257576 144.376404,90.218407 144.808289,90.179245 
	C144.520096,87.939110 144.231888,85.698982 143.933945,82.637939 
M135.602829,83.788040 
	C136.348511,83.709267 137.094193,83.630486 137.839874,83.551712 
	C136.953888,82.815834 136.067902,82.079948 135.181915,81.344070 
	C135.145721,82.038063 135.109528,82.732063 135.602829,83.788040 
M132.943115,79.461845 
	C132.757401,78.898880 132.571686,78.335915 132.385956,77.772949 
	C131.968079,78.369949 131.550217,78.966949 131.132339,79.563950 
	C131.680801,79.732544 132.229263,79.901138 132.943115,79.461845 
M143.527405,76.506020 
	C143.527405,76.506020 143.484543,76.521164 143.527405,76.506020 
z"/>
<path fill="#FEFEFE" opacity="1.000000" stroke="none" 
	d="
M109.143478,72.934914 
	C108.456627,74.325905 107.769768,75.716896 106.650612,77.983353 
	C110.514343,78.246262 113.715508,79.179642 116.520729,78.493713 
	C121.176224,77.355377 122.247231,79.187386 122.001556,84.006088 
	C122.516945,87.684837 123.031693,90.531326 123.639168,93.890610 
	C121.948608,92.723495 120.823883,91.947021 119.868744,91.287628 
	C118.155708,92.866997 116.717369,94.193108 115.520920,95.296196 
	C116.736481,97.320351 117.865715,99.200752 118.755760,100.682861 
	C115.710670,100.880013 113.320763,101.034744 110.930847,101.189476 
	C111.219383,103.752342 111.506920,106.315323 111.797653,108.877937 
	C111.834846,109.205719 111.888664,109.531601 111.733414,109.960640 
	C111.251572,110.227921 111.090645,110.471817 111.049271,110.794601 
	C110.284691,110.812706 109.520111,110.830811 108.324280,110.386734 
	C106.610641,109.894585 105.328247,109.864609 104.045853,109.834625 
	C103.585388,109.839363 103.124931,109.844086 102.271835,109.358170 
	C100.696251,106.517845 99.513306,104.168159 98.087311,101.335724 
	C97.552292,102.820694 96.892082,104.653160 96.336945,106.193970 
	C94.813072,106.392365 93.440483,106.571060 92.067894,106.749756 
	C91.242599,106.537224 90.417305,106.324684 89.310692,105.508636 
	C88.367165,94.439995 87.704956,83.974876 87.035248,73.391251 
	C93.504471,72.505150 99.257256,71.717186 105.447159,70.949081 
	C106.452797,70.859665 107.021309,70.750381 107.589821,70.641098 
	C107.922447,70.722855 108.255074,70.804611 108.741547,71.361420 
	C108.978088,72.202614 109.060783,72.568764 109.143478,72.934914 
z"/>
<path fill="#FEFEFE" opacity="1.000000" stroke="none" 
	d="
M61.277866,67.946884 
	C61.277866,67.946884 60.926197,67.670624 60.969845,67.080353 
	C59.677631,64.321846 58.341770,62.153606 57.005699,59.538971 
	C56.805496,56.642822 56.892754,54.125641 56.337215,51.759369 
	C55.533318,48.335251 56.326210,47.063812 60.077446,46.889057 
	C65.107201,46.654747 70.099678,45.620075 75.451637,44.969543 
	C78.217003,46.327827 80.638901,47.645592 83.046036,49.415836 
	C83.480499,54.781284 83.653168,59.739529 84.448326,64.595848 
	C85.461510,70.783745 84.828331,71.660362 78.381111,72.101059 
	C76.564720,72.225220 74.815468,73.331612 72.661743,73.986221 
	C70.848198,73.661423 69.408340,73.337883 67.605980,73.017075 
	C66.519188,72.990440 65.794899,72.961090 64.914963,72.638474 
	C63.598827,70.879097 62.438347,69.412987 61.277866,67.946884 
z"/>
<path fill="#FEFEFE" opacity="1.000000" stroke="none" 
	d="
M148.891464,94.045570 
	C149.683990,94.030800 150.476501,94.016029 151.929504,94.268143 
	C155.367264,94.349411 158.144516,94.163803 160.921783,93.978195 
	C161.407806,93.977966 161.893829,93.977753 163.190018,93.953140 
	C167.052917,93.926201 170.105652,93.923668 173.158386,93.921127 
	C173.523376,94.382248 173.888351,94.843369 173.921295,95.661285 
	C173.098648,96.597137 172.167435,97.191109 172.186478,97.752899 
	C172.353897,102.696053 172.690460,107.633492 172.976959,112.572617 
	C170.967102,112.514862 168.957245,112.457100 166.388046,111.999054 
	C163.761841,110.833275 162.191330,110.968475 162.855438,113.745773 
	C163.370270,115.898842 164.252167,117.964142 164.685913,120.347008 
	C162.807953,120.755356 161.120026,120.595024 159.642853,121.078560 
	C156.999771,121.943764 154.483688,123.196877 151.914505,124.287834 
	C150.644669,123.131172 149.374832,121.974518 148.043396,120.123245 
	C147.512497,117.666931 147.043182,115.905235 146.694290,113.702393 
	C146.620651,111.320480 146.375366,109.383194 146.242752,107.438232 
	C145.922592,102.742645 144.561462,97.826363 148.891464,94.045570 
z"/>
<path fill="#F0F0F0" opacity="1.000000" stroke="none" 
	d="
M105.010033,70.929214 
	C99.257256,71.717186 93.504471,72.505150 87.035248,73.391251 
	C87.704956,83.974876 88.367165,94.439995 89.020813,105.358505 
	C86.845779,106.921532 84.679298,108.031166 82.431725,109.182335 
	C84.845116,111.198524 87.054710,113.044464 89.992859,115.499046 
	C87.268730,116.542114 85.482468,117.226074 83.181396,117.695351 
	C82.102936,117.823997 81.539284,118.167328 80.975632,118.510666 
	C80.536659,118.664375 80.097679,118.818085 79.172073,118.720016 
	C78.113991,118.749146 77.542542,119.030060 76.971085,119.310974 
	C74.674500,118.507095 72.340202,117.794983 70.092789,116.871468 
	C68.156181,116.075661 66.318550,115.039001 64.437164,114.108826 
	C64.699577,116.089264 64.961998,118.069695 64.976753,120.607048 
	C64.142151,121.767303 63.555202,122.370644 62.765472,122.719490 
	C61.717251,122.309433 60.871807,122.153862 60.026363,121.998299 
	C54.582413,115.013794 54.353050,112.368584 59.442680,108.192886 
	C59.500702,107.301300 58.963524,106.619308 58.426346,105.937317 
	C57.627552,105.268143 56.828762,104.598969 56.014755,103.291290 
	C56.023113,102.424278 56.046680,102.195778 56.435898,101.968491 
	C58.534798,101.313423 60.268044,100.657127 62.020325,100.362366 
	C64.958839,105.204597 65.744797,105.141098 71.453354,100.003357 
	C75.494179,99.693726 79.089127,99.039604 82.658295,99.158607 
	C86.712387,99.293777 87.353073,97.288399 87.017677,93.990112 
	C86.306168,86.992996 85.675743,79.987640 85.253738,72.820663 
	C85.661598,72.106583 85.827782,71.557510 86.432831,71.006416 
	C90.967262,70.650757 95.073120,70.378571 99.148369,69.864029 
	C99.834793,69.777359 100.389069,68.644104 101.303146,68.008102 
	C102.197784,68.064888 102.793678,68.107986 103.389572,68.151093 
	C103.778328,68.337418 104.167091,68.523750 104.727188,69.267120 
	C104.935692,70.192513 104.972862,70.560860 105.010033,70.929214 
z"/>
<path fill="#FDFDFD" opacity="1.000000" stroke="none" 
	d="
M85.012070,72.985664 
	C85.675743,79.987640 86.306168,86.992996 87.017677,93.990112 
	C87.353073,97.288399 86.712387,99.293777 82.658295,99.158607 
	C79.089127,99.039604 75.494179,99.693726 71.243698,99.706947 
	C67.718277,99.605263 64.859787,99.803047 62.001289,100.000839 
	C60.268044,100.657127 58.534798,101.313423 56.385391,101.624496 
	C55.582840,100.503464 55.196449,99.727646 54.810059,98.951820 
	C54.146461,93.206291 60.493454,94.392845 62.515991,91.238373 
	C62.957031,90.550499 64.267258,90.419914 65.899117,89.984810 
	C69.370247,87.260506 67.087265,85.164925 65.814857,82.952690 
	C65.761627,81.282196 65.708389,79.611702 65.982117,77.363121 
	C66.862213,75.528137 67.415344,74.271240 67.968483,73.014343 
	C69.408340,73.337883 70.848198,73.661423 73.080734,73.980301 
	C77.586304,73.645653 81.299187,73.315659 85.012070,72.985664 
z"/>
<path fill="#F7F7F7" opacity="1.000000" stroke="none" 
	d="
M75.108162,44.929024 
	C70.099678,45.620075 65.107201,46.654747 60.077446,46.889057 
	C56.326210,47.063812 55.533318,48.335251 56.337215,51.759369 
	C56.892754,54.125641 56.805496,56.642822 56.744926,59.538433 
	C55.967003,60.345798 55.449635,60.707294 54.932266,61.068794 
	C53.256210,62.415401 51.413696,63.605396 49.954639,65.156166 
	C48.696106,66.493813 47.155453,68.175217 47.002056,69.822235 
	C46.632267,73.792564 44.078789,75.108986 41.282291,73.922089 
	C39.052494,72.975700 36.422623,70.154076 36.205898,67.945503 
	C35.883911,64.664291 37.535526,61.189407 38.790695,57.366684 
	C39.208477,56.303474 39.182716,55.670532 39.156956,55.037594 
	C39.182495,53.627571 39.208035,52.217548 39.405949,50.245239 
	C39.220882,49.099201 38.863434,48.515442 38.505989,47.931686 
	C38.430733,46.991825 37.924725,45.719860 38.351139,45.166779 
	C40.847706,41.928619 39.223919,38.891273 38.594543,35.448429 
	C39.375099,35.039837 39.771114,34.974869 40.392910,34.918510 
	C40.618694,34.927120 40.999184,35.170933 41.059898,35.498665 
	C46.512848,42.285728 46.508156,42.273304 53.628052,39.584785 
	C53.982986,39.450764 54.540024,39.851959 55.010872,40.401131 
	C55.174870,44.221413 57.117912,45.288509 60.309151,45.021137 
	C65.220848,44.609619 70.144859,44.345207 75.066093,44.246475 
	C75.068535,44.474560 75.108162,44.929028 75.108162,44.929024 
M54.587723,46.516941 
	C54.587723,46.516941 54.477577,46.582672 54.587723,46.516941 
z"/>
<path fill="#F4F4F4" opacity="1.000000" stroke="none" 
	d="
M170.247726,82.237839 
	C170.689438,77.449409 167.471024,77.989090 164.414856,77.707275 
	C164.431091,77.082283 164.732040,76.695602 165.032990,76.308914 
	C172.283417,72.537636 179.445938,73.371193 185.457687,78.334000 
	C191.123428,83.011139 195.875870,88.794617 201.044006,94.802605 
	C201.422791,96.362724 201.787659,97.211632 202.152527,98.060539 
	C203.045685,99.128716 203.938858,100.196899 204.910355,101.817398 
	C204.988693,102.369713 204.990997,102.831726 204.990997,102.831726 
	C198.815720,103.454453 194.124664,100.195786 189.147720,96.266602 
	C188.095337,95.288086 187.346970,94.932602 186.598618,94.577118 
	C186.536606,95.764412 186.474594,96.951714 186.412582,98.139008 
	C184.885330,96.897247 183.358063,95.655495 181.936295,93.709427 
	C183.300064,92.502647 184.558350,92.000183 187.069244,90.997513 
	C183.816818,90.997513 181.911789,90.997513 180.006775,90.997513 
	C176.836212,88.154190 173.665665,85.310860 170.247726,82.237839 
z"/>
<path fill="#F4F4F4" opacity="1.000000" stroke="none" 
	d="
M173.379028,112.717636 
	C172.690460,107.633492 172.353897,102.696053 172.186478,97.752899 
	C172.167435,97.191109 173.098648,96.597137 173.963409,95.957359 
	C174.653122,96.248672 174.968658,96.600708 175.205566,97.538406 
	C175.611404,98.768417 176.095856,99.412773 176.580307,100.057137 
	C178.521606,101.687386 180.462921,103.317635 182.720703,105.424515 
	C183.681885,105.967331 184.326584,106.033508 184.971283,106.099686 
	C193.407761,104.359322 194.082489,111.468086 196.523712,116.896927 
	C196.814682,117.953247 197.269424,118.488823 197.724167,119.024399 
	C197.944687,119.261986 198.165192,119.499580 198.291229,120.352753 
	C199.011017,121.989601 199.825272,123.010857 200.639526,124.032120 
	C201.809357,125.598106 202.979187,127.164093 204.147491,129.415665 
	C204.997147,130.764114 205.848297,131.426956 206.699463,132.089813 
	C207.042480,133.180038 207.385498,134.270279 207.522278,135.930756 
	C208.132339,137.008102 208.948685,137.515228 209.765015,138.022339 
	C208.237442,140.655594 206.709885,143.288864 205.182327,145.922134 
	C204.674622,145.758545 204.166931,145.594955 203.659225,145.431366 
	C199.562012,132.100342 195.741699,118.566521 180.199142,112.903687 
	C179.178482,112.620720 178.609268,112.721359 178.040039,112.821999 
	C176.620392,112.835556 175.200760,112.849106 173.379028,112.717636 
z"/>
<path fill="#F0F0F0" opacity="1.000000" stroke="none" 
	d="
M152.032379,124.573540 
	C154.483688,123.196877 156.999771,121.943764 159.642853,121.078560 
	C161.120026,120.595024 162.807953,120.755356 164.990326,120.319214 
	C165.776489,119.960533 165.973236,119.908195 166.169998,119.855850 
	C166.169998,119.855850 166.023163,119.950424 166.082642,120.281677 
	C166.996246,120.916679 167.850372,121.220428 168.704483,121.524178 
	C170.214752,121.591652 171.725037,121.659119 173.805679,122.107574 
	C175.671143,122.963829 176.966217,123.439110 178.261307,123.914391 
	C178.437439,124.193008 178.613586,124.471619 178.570312,125.425461 
	C178.262695,126.718925 178.174500,127.337158 177.786316,128.214951 
	C177.301376,130.347443 177.116425,132.220383 176.638672,134.047699 
	C175.952469,133.990067 175.559052,133.978073 175.165649,133.966064 
	C171.670837,132.119843 168.176041,130.273621 164.244461,128.019653 
	C163.225800,127.644096 162.643906,127.676285 162.062012,127.708481 
	C161.612076,127.640228 161.162140,127.571976 160.276703,127.066223 
	C158.241211,126.355118 156.641190,126.081505 155.041183,125.807884 
	C154.077530,125.491669 153.113892,125.175453 152.032379,124.573540 
z"/>
<path fill="#FDFDFD" opacity="1.000000" stroke="none" 
	d="
M75.063652,44.018387 
	C70.144859,44.345207 65.220848,44.609619 60.309151,45.021137 
	C57.117912,45.288509 55.174870,44.221413 55.010628,39.978012 
	C54.959949,38.022755 54.917427,36.887802 54.924194,35.598045 
	C55.180111,35.290207 55.233086,35.095367 55.132408,34.858727 
	C56.468102,34.642979 57.803795,34.427231 59.654621,34.658665 
	C65.659348,36.945942 71.148941,38.786037 76.954628,40.732082 
	C76.020172,42.356060 75.541916,43.187225 75.063652,44.018387 
z"/>
<path fill="#FDFDFD" opacity="1.000000" stroke="none" 
	d="
M176.931458,134.093307 
	C177.116425,132.220383 177.301376,130.347443 177.915833,128.557770 
	C179.432220,131.121536 180.519104,133.602051 181.605988,136.082565 
	C181.894333,136.626114 182.182678,137.169662 182.358612,138.356720 
	C182.773880,139.681107 183.301559,140.361984 183.829224,141.042847 
	C184.258835,141.707916 184.688446,142.373001 185.075363,143.711548 
	C185.089325,146.955734 182.793930,150.478363 187.738525,151.070923 
	C186.796402,153.312576 185.854279,155.554230 184.397583,157.895920 
	C183.110138,157.628998 182.337296,157.262024 181.564453,156.895050 
	C181.400436,155.844620 181.236420,154.794189 181.396667,153.142990 
	C180.987350,150.995010 180.253784,149.447784 179.520218,147.900574 
	C179.379211,147.478287 179.238205,147.056000 179.339142,146.189041 
	C179.326080,145.125320 179.071045,144.506271 178.816010,143.887222 
	C178.639359,143.463806 178.462708,143.040375 178.510742,142.154449 
	C178.422729,141.089600 178.110031,140.487289 177.797318,139.884964 
	C177.594925,139.474548 177.392532,139.064117 177.395599,138.119537 
	C177.377869,136.421371 177.154663,135.257339 176.931458,134.093307 
z"/>
<path fill="#FEFEFE" opacity="1.000000" stroke="none" 
	d="
M62.968254,122.973984 
	C63.555202,122.370644 64.142151,121.767303 65.009354,121.009331 
	C66.403374,121.858582 67.517120,122.862465 68.773361,124.497520 
	C69.664734,125.712311 70.413605,126.295921 71.162476,126.879539 
	C71.162476,126.879539 71.041740,126.967285 71.028419,127.249115 
	C71.011330,128.596664 71.007561,129.662384 71.003784,130.728104 
	C71.675339,130.467072 72.346893,130.206024 73.018440,129.944977 
	C73.754883,129.991669 74.491318,130.038345 76.024628,130.069397 
	C78.513458,130.049164 80.205437,130.044571 81.897408,130.039993 
	C82.285217,130.411880 82.673027,130.783752 83.045998,131.768692 
	C82.704765,133.853928 82.378365,135.326126 82.051971,136.798309 
	C81.284111,136.782471 80.516243,136.766632 79.287132,136.254868 
	C75.848450,135.299667 72.871017,134.840408 69.893585,134.381165 
	C69.023048,134.169601 68.152519,133.958038 67.238663,133.140472 
	C67.299812,131.474945 67.853241,130.161407 67.424484,129.403519 
	C66.145821,127.143379 64.481758,125.101265 62.968254,122.973984 
z"/>
<path fill="#CFBF8B" opacity="1.000000" stroke="none" 
	d="
M54.787067,34.700821 
	C55.233086,35.095367 55.180111,35.290207 54.584072,35.698872 
	C51.905251,37.493553 49.615837,39.032597 48.259407,39.944454 
	C45.596695,37.364445 43.910393,35.730522 42.139305,33.723507 
	C42.965908,31.180471 43.877293,29.010523 45.136055,26.914185 
	C45.956146,27.003613 46.428856,27.019432 46.901569,27.035252 
	C46.583683,28.185760 46.265797,29.336266 45.635128,31.618805 
	C50.992302,27.923019 52.123055,32.450962 54.787067,34.700821 
z"/>
<path fill="#D9D8D9" opacity="1.000000" stroke="none" 
	d="
M75.066093,44.246475 
	C75.541916,43.187225 76.020172,42.356060 76.954628,40.732082 
	C71.148941,38.786037 65.659348,36.945942 60.050285,34.767014 
	C64.002869,35.472313 68.116791,36.379635 72.132187,37.608852 
	C74.792595,38.423279 77.311806,39.698956 79.036629,41.474472 
	C79.931870,42.996670 80.478172,45.022274 81.795563,45.935463 
	C84.474663,47.792545 87.570137,49.048946 90.745300,51.111847 
	C90.998230,52.106335 90.999893,52.541866 90.693878,52.839050 
	C88.593796,51.772259 86.801369,50.843811 84.837883,49.686653 
	C84.131477,49.293083 83.596138,49.128220 83.060791,48.963356 
	C80.638901,47.645592 78.217003,46.327827 75.451637,44.969543 
	C75.108162,44.929028 75.068535,44.474560 75.066093,44.246475 
z"/>
<path fill="#D7D7D7" opacity="1.000000" stroke="none" 
	d="
M91.001556,52.977394 
	C90.999893,52.541866 90.998230,52.106335 90.995392,51.344162 
	C92.288162,51.114681 93.582108,51.211849 95.357391,51.345161 
	C94.444687,52.865662 93.741364,54.037350 92.538925,56.040508 
	C98.109192,59.476086 103.638527,62.886417 109.168182,66.296951 
	C107.752464,66.574455 105.733505,66.970207 103.552063,67.758530 
	C102.793678,68.107986 102.197784,68.064888 101.331192,67.682037 
	C101.774139,66.592857 102.487778,65.843422 103.397034,64.888557 
	C102.658203,64.546646 101.852272,64.350166 101.272354,63.876801 
	C97.375381,60.695827 91.688599,59.181751 91.001556,52.977394 
z"/>
<path fill="#E7E7E7" opacity="1.000000" stroke="none" 
	d="
M92.328720,107.000069 
	C93.440483,106.571060 94.813072,106.392365 96.336945,106.193970 
	C96.892082,104.653160 97.552292,102.820694 98.087311,101.335724 
	C99.513306,104.168159 100.696251,106.517845 101.965393,109.187439 
	C98.897583,108.755028 95.743568,108.002701 92.328720,107.000069 
z"/>
<path fill="#D7D7D7" opacity="1.000000" stroke="none" 
	d="
M173.134369,93.568756 
	C170.105652,93.923668 167.052917,93.926201 163.554352,93.940865 
	C165.199860,93.011559 167.291229,92.070129 169.631424,91.016678 
	C169.197357,90.013580 168.649918,88.748436 168.122192,87.106964 
	C169.798065,88.892555 171.454208,91.054474 173.134369,93.568756 
z"/>
<path fill="#E6E6E6" opacity="1.000000" stroke="none" 
	d="
M62.765472,122.719490 
	C64.481758,125.101265 66.145821,127.143379 67.424484,129.403519 
	C67.853241,130.161407 67.299812,131.474945 67.073837,132.836731 
	C64.667847,129.656204 62.383343,126.173447 60.062607,122.344498 
	C60.871807,122.153862 61.717251,122.309433 62.765472,122.719490 
z"/>
<path fill="#A59366" opacity="1.000000" stroke="none" 
	d="
M42.021950,21.891226 
	C42.234661,22.142193 42.457645,22.383673 42.831612,23.184521 
	C42.301956,26.079821 41.631596,28.406265 40.961235,30.732712 
	C40.397285,30.655323 39.833332,30.577936 39.051514,30.014217 
	C38.631325,29.267384 38.428997,29.006878 38.226669,28.746372 
	C38.202404,28.251310 38.178139,27.756248 38.099480,26.898142 
	C38.045078,26.535097 37.996498,26.540977 38.276844,26.342094 
	C38.806061,25.513521 39.054932,24.883831 39.590130,24.149429 
	C40.591618,23.326887 41.306786,22.609056 42.021950,21.891226 
z"/>
<path fill="#8B7E50" opacity="1.000000" stroke="none" 
	d="
M37.996498,26.540977 
	C37.996498,26.540977 38.045078,26.535097 38.069000,26.527599 
	C36.820469,25.223724 35.548023,23.927347 34.402164,22.205101 
	C34.946968,21.526430 35.365181,21.273632 36.101746,20.900902 
	C36.621326,20.146738 36.822552,19.512505 37.023773,18.878273 
	C37.912590,19.385675 38.801403,19.893076 39.733036,20.961840 
	C39.465267,22.052166 39.154678,22.581131 38.559204,23.038631 
	C38.003834,23.064867 37.733353,23.162567 37.462872,23.260267 
	C37.681976,23.562391 37.901077,23.864513 38.101730,24.562531 
	C38.054356,25.485943 38.025429,26.013460 37.996498,26.540977 
z"/>
<path fill="#C6C6C6" opacity="1.000000" stroke="none" 
	d="
M146.573868,114.143532 
	C147.043182,115.905235 147.512497,117.666931 147.927094,119.819595 
	C145.665558,117.673233 143.458725,115.135910 141.183868,112.270447 
	C142.328705,112.619637 143.541565,113.296982 145.287079,114.042870 
	C146.071915,114.103859 146.323288,114.114563 146.573868,114.143532 
z"/>
<path fill="#403216" opacity="1.000000" stroke="none" 
	d="
M40.892178,31.073460 
	C41.631596,28.406265 42.301956,26.079821 42.996632,23.367653 
	C43.577278,23.343321 44.133610,23.704714 44.813461,24.665077 
	C44.887547,25.789555 44.838112,26.315065 44.788677,26.840574 
	C43.877293,29.010523 42.965908,31.180471 42.020042,33.988182 
	C41.656769,34.807610 41.327976,34.989273 40.999184,35.170937 
	C40.999184,35.170933 40.618694,34.927120 40.298416,34.699474 
	C39.978142,34.471828 40.003387,33.995441 40.003387,33.995441 
	C40.276630,33.135029 40.549877,32.274620 40.892178,31.073460 
z"/>
<path fill="#CFCFCF" opacity="1.000000" stroke="none" 
	d="
M166.122559,119.481216 
	C165.973236,119.908195 165.776489,119.960533 165.275330,120.040672 
	C164.252167,117.964142 163.370270,115.898842 162.855438,113.745773 
	C162.191330,110.968475 163.761841,110.833275 165.978546,111.858612 
	C161.782135,114.414848 165.638748,116.773758 166.122559,119.481216 
z"/>
<path fill="#E6E6E6" opacity="1.000000" stroke="none" 
	d="
M70.161079,134.610931 
	C72.871017,134.840408 75.848450,135.299667 78.943604,136.072449 
	C76.183746,135.870895 73.306160,135.355804 70.161079,134.610931 
z"/>
<path fill="#CFCFCF" opacity="1.000000" stroke="none" 
	d="
M181.622391,135.701340 
	C180.519104,133.602051 179.432220,131.121536 178.215820,128.298218 
	C178.174500,127.337158 178.262695,126.718925 178.561447,125.680084 
	C179.727600,128.613022 180.683182,131.966568 181.622391,135.701340 
z"/>
<path fill="#D9D8D9" opacity="1.000000" stroke="none" 
	d="
M55.293335,61.204163 
	C55.449635,60.707294 55.967003,60.345798 56.745140,59.984833 
	C58.341770,62.153606 59.677631,64.321846 60.948395,66.857773 
	C59.140331,65.263496 57.397366,63.301517 55.293335,61.204163 
z"/>
<path fill="#D7D7D7" opacity="1.000000" stroke="none" 
	d="
M109.494225,72.986450 
	C109.060783,72.568764 108.978088,72.202614 108.918655,71.555527 
	C111.457146,72.061150 113.972366,72.847710 116.728958,73.891098 
	C114.595215,73.777939 112.220093,73.407967 109.494225,72.986450 
z"/>
<path fill="#D7D7D7" opacity="1.000000" stroke="none" 
	d="
M127.677567,75.362862 
	C124.987656,79.506775 122.138893,75.370956 119.035248,74.931732 
	C121.692131,74.813263 124.482681,75.010925 127.677567,75.362862 
z"/>
<path fill="#CFCFCF" opacity="1.000000" stroke="none" 
	d="
M187.446808,150.801147 
	C182.793930,150.478363 185.089325,146.955734 185.123108,144.007538 
	C185.860703,145.930527 186.507889,148.230942 187.446808,150.801147 
z"/>
<path fill="#E7E7E7" opacity="1.000000" stroke="none" 
	d="
M111.365654,110.977600 
	C111.090645,110.471817 111.251572,110.227921 112.158325,109.999657 
	C114.198952,109.941055 115.613312,109.945709 117.027664,109.950363 
	C117.570999,110.102028 118.114342,110.253693 118.811722,110.647316 
	C116.537865,110.979721 114.109947,111.070160 111.365654,110.977600 
z"/>
<path fill="#D9D8D9" opacity="1.000000" stroke="none" 
	d="
M65.649612,83.260010 
	C67.087265,85.164925 69.370247,87.260506 66.250061,89.938675 
	C65.747490,87.816040 65.615929,85.691681 65.649612,83.260010 
z"/>
<path fill="#E6E6E6" opacity="1.000000" stroke="none" 
	d="
M82.283371,136.980118 
	C82.378365,135.326126 82.704765,133.853928 83.081909,132.046967 
	C84.072701,133.165176 85.012749,134.618134 86.359055,136.699020 
	C84.575645,136.913773 83.545212,137.037842 82.283371,136.980118 
z"/>
<path fill="#D9D8D9" opacity="1.000000" stroke="none" 
	d="
M61.275032,68.292511 
	C62.438347,69.412987 63.598827,70.879097 64.835663,73.055283 
	C64.832939,74.036469 64.753868,74.307571 64.674789,74.578674 
	C63.540592,72.598495 62.406399,70.618309 61.275032,68.292511 
z"/>
<path fill="#CFCFCF" opacity="1.000000" stroke="none" 
	d="
M179.423248,148.234192 
	C180.253784,149.447784 180.987350,150.995010 181.462189,152.745834 
	C180.577728,151.488892 179.952011,150.028351 179.423248,148.234192 
z"/>
<path fill="#E9E9E9" opacity="1.000000" stroke="none" 
	d="
M186.466766,98.113174 
	C186.474594,96.951714 186.536606,95.764412 186.598618,94.577118 
	C187.346970,94.932602 188.095337,95.288086 188.936554,95.956955 
	C188.616119,97.448013 188.202820,98.625687 187.283569,99.421997 
	C186.598801,98.809746 186.419952,98.578835 186.241089,98.347923 
	C186.241089,98.347923 186.520935,98.087349 186.466766,98.113174 
z"/>
<path fill="#E7E7E7" opacity="1.000000" stroke="none" 
	d="
M64.667389,74.865524 
	C64.753868,74.307571 64.832939,74.036469 64.991318,73.348557 
	C65.794899,72.961090 66.519188,72.990440 67.605980,73.017075 
	C67.415344,74.271240 66.862213,75.528137 65.998550,76.944275 
	C65.345352,76.453133 65.002670,75.802757 64.667389,74.865524 
z"/>
<path fill="#E6E6E6" opacity="1.000000" stroke="none" 
	d="
M81.803993,129.714447 
	C80.205437,130.044571 78.513458,130.049164 76.399132,130.021881 
	C77.655190,127.568489 79.603317,127.719688 81.803993,129.714447 
z"/>
<path fill="#E9E9E9" opacity="1.000000" stroke="none" 
	d="
M202.537704,98.062210 
	C201.787659,97.211632 201.422791,96.362724 201.077286,95.141068 
	C202.718460,95.678406 204.340271,96.588478 206.635742,97.876564 
	C204.875671,97.965363 203.899277,98.014626 202.537704,98.062210 
z"/>
<path fill="#CFCFCF" opacity="1.000000" stroke="none" 
	d="
M178.265289,123.590500 
	C176.966217,123.439110 175.671143,122.963829 174.175842,122.202087 
	C175.406845,122.365959 176.838074,122.816284 178.265289,123.590500 
z"/>
<path fill="#E9E9E9" opacity="1.000000" stroke="none" 
	d="
M180.069031,91.315262 
	C181.911789,90.997513 183.816818,90.997513 187.069244,90.997513 
	C184.558350,92.000183 183.300064,92.502647 181.833160,93.345642 
	C181.126770,93.001793 180.629028,92.317406 180.069031,91.315262 
z"/>
<path fill="#C6C6C6" opacity="1.000000" stroke="none" 
	d="
M155.279846,126.049515 
	C156.641190,126.081505 158.241211,126.355118 159.980392,126.887497 
	C158.585892,126.861221 157.052200,126.576187 155.279846,126.049515 
z"/>
<path fill="#D7D7D7" opacity="1.000000" stroke="none" 
	d="
M54.593353,99.185707 
	C55.196449,99.727646 55.582840,100.503464 56.019737,101.623276 
	C56.046680,102.195778 56.023113,102.424278 55.920174,102.988098 
	C55.352757,102.022141 54.864704,100.720863 54.593353,99.185707 
z"/>
<path fill="#CFCFCF" opacity="1.000000" stroke="none" 
	d="
M176.638672,134.047699 
	C177.154663,135.257339 177.377869,136.421371 177.373871,137.774780 
	C176.494507,136.849472 175.842346,135.734787 175.177917,134.293076 
	C175.559052,133.978073 175.952469,133.990067 176.638672,134.047699 
z"/>
<path fill="#E6E6E6" opacity="1.000000" stroke="none" 
	d="
M72.947128,129.635651 
	C72.346893,130.206024 71.675339,130.467072 71.003784,130.728104 
	C71.007561,129.662384 71.011330,128.596664 71.070786,127.187675 
	C71.709587,127.671715 72.292694,128.499008 72.947128,129.635651 
z"/>
<path fill="#E7E7E7" opacity="1.000000" stroke="none" 
	d="
M125.270790,110.466980 
	C126.158119,110.026985 127.372215,109.715439 128.776947,109.651749 
	C127.844231,110.131538 126.720894,110.363480 125.270790,110.466980 
z"/>
<path fill="#E7E7E7" opacity="1.000000" stroke="none" 
	d="
M104.324661,110.046326 
	C105.328247,109.864609 106.610641,109.894585 107.970581,110.231247 
	C106.899910,110.444633 105.751686,110.351334 104.324661,110.046326 
z"/>
<path fill="#C6C6C6" opacity="1.000000" stroke="none" 
	d="
M136.291779,109.115128 
	C137.341324,109.404297 138.675049,109.849197 140.017548,110.621475 
	C138.876205,110.389519 137.726089,109.830193 136.291779,109.115128 
z"/>
<path fill="#E3E3E3" opacity="1.000000" stroke="none" 
	d="
M200.585220,123.716675 
	C199.825272,123.010857 199.011017,121.989601 198.293213,120.603958 
	C199.103394,121.293465 199.817154,122.347351 200.585220,123.716675 
z"/>
<path fill="#CFCFCF" opacity="1.000000" stroke="none" 
	d="
M181.457275,157.170471 
	C182.337296,157.262024 183.110138,157.628998 184.165588,158.156799 
	C183.415497,158.027069 182.382797,157.736481 181.457275,157.170471 
z"/>
<path fill="#A59366" opacity="1.000000" stroke="none" 
	d="
M35.783394,21.020836 
	C35.365181,21.273632 34.946968,21.526430 34.302723,21.874622 
	C34.456688,20.424120 34.836685,18.878220 35.612328,17.595131 
	C35.933113,18.912239 35.858253,19.966537 35.783394,21.020836 
z"/>
<path fill="#403216" opacity="1.000000" stroke="none" 
	d="
M38.844086,23.110096 
	C39.154678,22.581131 39.465267,22.052166 39.904617,21.244053 
	C40.604187,21.097445 41.174999,21.229986 41.883881,21.626877 
	C41.306786,22.609056 40.591618,23.326887 39.464455,24.043095 
	C39.052452,24.041471 38.816746,23.827356 38.809799,23.647514 
	C38.802853,23.467674 38.844086,23.110094 38.844086,23.110096 
z"/>
<path fill="#C6C6C6" opacity="1.000000" stroke="none" 
	d="
M153.711212,76.983047 
	C152.983047,77.034897 151.999466,76.879723 150.989349,76.418907 
	C151.793793,76.334183 152.624802,76.555092 153.711212,76.983047 
z"/>
<path fill="#E3E3E3" opacity="1.000000" stroke="none" 
	d="
M209.752960,137.714188 
	C208.948685,137.515228 208.132339,137.008102 207.512909,136.300171 
	C208.386841,136.534897 209.063889,136.970459 209.752960,137.714188 
z"/>
<path fill="#D7D7D7" opacity="1.000000" stroke="none" 
	d="
M58.563194,106.216064 
	C58.963524,106.619308 59.500702,107.301300 59.765396,108.057419 
	C59.228626,107.585960 58.964336,107.040382 58.563194,106.216064 
z"/>
<path fill="#E6E6E6" opacity="1.000000" stroke="none" 
	d="
M71.116074,126.590729 
	C70.413605,126.295921 69.664734,125.712311 68.926239,124.797684 
	C69.647636,125.078423 70.358650,125.690178 71.116074,126.590729 
z"/>
<path fill="#C6C6C6" opacity="1.000000" stroke="none" 
	d="
M164.714142,76.269684 
	C164.732040,76.695602 164.431091,77.082283 163.982208,77.671387 
	C163.328430,77.777283 162.822617,77.680771 162.173538,77.363022 
	C162.818634,76.838013 163.606964,76.534233 164.714142,76.269684 
z"/>
<path fill="#E3E3E3" opacity="1.000000" stroke="none" 
	d="
M206.628296,131.782898 
	C205.848297,131.426956 204.997147,130.764114 204.208954,129.730637 
	C205.033676,130.065323 205.795410,130.770645 206.628296,131.782898 
z"/>
<path fill="#D7D7D7" opacity="1.000000" stroke="none" 
	d="
M163.711258,81.743843 
	C163.048065,81.646614 162.673706,81.175003 162.299332,80.703392 
	C162.986389,80.647499 163.673462,80.591606 164.579208,80.698715 
	C164.531952,81.030960 164.266022,81.200211 163.711258,81.743843 
z"/>
<path fill="#CFCFCF" opacity="1.000000" stroke="none" 
	d="
M183.870789,140.728012 
	C183.301559,140.361984 182.773880,139.681107 182.401505,138.662750 
	C183.008652,139.021225 183.460495,139.717209 183.870789,140.728012 
z"/>
<path fill="#CFCFCF" opacity="1.000000" stroke="none" 
	d="
M177.678757,140.151352 
	C178.110031,140.487289 178.422729,141.089600 178.526291,141.808167 
	C178.064835,141.422195 177.812515,140.919968 177.678757,140.151352 
z"/>
<path fill="#D7D7D7" opacity="1.000000" stroke="none" 
	d="
M38.395813,48.208065 
	C38.863434,48.515442 39.220882,49.099201 39.364681,49.819954 
	C38.862572,49.466110 38.574104,48.975277 38.395813,48.208065 
z"/>
<path fill="#CFCFCF" opacity="1.000000" stroke="none" 
	d="
M178.695251,144.148315 
	C179.071045,144.506271 179.326080,145.125320 179.367981,145.853271 
	C178.961395,145.444595 178.767944,144.927017 178.695251,144.148315 
z"/>
<path fill="#C6C6C6" opacity="1.000000" stroke="none" 
	d="
M162.187042,127.897247 
	C162.643906,127.676285 163.225800,127.644096 163.915619,127.852158 
	C163.453033,128.090286 162.882553,128.088150 162.187042,127.897247 
z"/>
<path fill="#403216" opacity="1.000000" stroke="none" 
	d="
M36.101746,20.900906 
	C35.858253,19.966537 35.933113,18.912239 35.947247,17.459204 
	C36.257347,17.467564 36.628178,17.874659 37.011391,18.580013 
	C36.822552,19.512505 36.621326,20.146738 36.101746,20.900906 
z"/>
<path fill="#D7D7D7" opacity="1.000000" stroke="none" 
	d="
M38.989258,55.253887 
	C39.182716,55.670532 39.208477,56.303474 39.007793,57.012161 
	C38.794758,56.548668 38.808159,56.009426 38.989258,55.253887 
z"/>
<path fill="#D7D7D7" opacity="1.000000" stroke="none" 
	d="
M105.447159,70.949081 
	C104.972862,70.560860 104.935692,70.192513 104.903656,69.545578 
	C105.692986,69.543106 106.477180,69.819221 107.425598,70.368210 
	C107.021309,70.750381 106.452797,70.859665 105.447159,70.949081 
z"/>
<path fill="#E3E3E3" opacity="1.000000" stroke="none" 
	d="
M184.772766,105.903725 
	C184.326584,106.033508 183.681885,105.967331 183.002869,105.637177 
	C183.503769,105.484718 184.039001,105.596237 184.772766,105.903725 
z"/>
<path fill="#CFCFCF" opacity="1.000000" stroke="none" 
	d="
M168.512726,121.272263 
	C167.850372,121.220428 166.996246,120.916679 166.141724,120.217354 
	C166.867874,120.221306 167.594421,120.620827 168.512726,121.272263 
z"/>
<path fill="#D7D7D7" opacity="1.000000" stroke="none" 
	d="
M176.544403,99.752495 
	C176.095856,99.412773 175.611404,98.768417 175.197327,97.791382 
	C175.681305,98.121750 176.094894,98.784798 176.544403,99.752495 
z"/>
<path fill="#CFCFCF" opacity="1.000000" stroke="none" 
	d="
M178.190475,112.974518 
	C178.609268,112.721359 179.178482,112.620720 179.871246,112.750336 
	C179.443481,113.029404 178.892197,113.078224 178.190475,112.974518 
z"/>
<path fill="#E6E6E6" opacity="1.000000" stroke="none" 
	d="
M77.229065,119.383514 
	C77.542542,119.030060 78.113991,118.749146 78.819183,118.666168 
	C78.464294,119.061417 77.975670,119.258736 77.229065,119.383514 
z"/>
<path fill="#C6C6C6" opacity="1.000000" stroke="none" 
	d="
M144.819977,74.000931 
	C144.406631,74.304535 143.842224,74.444977 143.153381,74.359550 
	C143.575607,74.035042 144.122253,73.936409 144.819977,74.000931 
z"/>
<path fill="#E6E6E6" opacity="1.000000" stroke="none" 
	d="
M81.245621,118.530716 
	C81.539284,118.167328 82.102936,117.823997 82.813469,117.683777 
	C82.478767,118.108185 81.997185,118.329475 81.245621,118.530716 
z"/>
<path fill="#E3E3E3" opacity="1.000000" stroke="none" 
	d="
M197.709564,118.735123 
	C197.269424,118.488823 196.814682,117.953247 196.556183,117.248871 
	C197.066605,117.535332 197.380783,117.990585 197.709564,118.735123 
z"/>
<path fill="#A59366" opacity="1.000000" stroke="none" 
	d="
M45.136055,26.914185 
	C44.838112,26.315065 44.887547,25.789555 44.962692,24.867088 
	C45.630215,25.096924 46.272026,25.723719 46.907707,26.692883 
	C46.428856,27.019432 45.956146,27.003613 45.136055,26.914185 
z"/>
<path fill="#E9E9E9" opacity="1.000000" stroke="none" 
	d="
M205.319244,102.939682 
	C204.990997,102.831726 204.988693,102.369713 205.012192,102.139893 
	C205.624420,102.098305 206.213150,102.286530 206.801880,102.474754 
	C206.417084,102.665718 206.032303,102.856674 205.319244,102.939682 
z"/>
<path fill="#D7D7D7" opacity="1.000000" stroke="none" 
	d="
M39.690571,33.966270 
	C40.003387,33.995441 39.978142,34.471828 40.072632,34.690865 
	C39.771114,34.974869 39.375099,35.039837 38.678432,35.083595 
	C38.711102,34.687286 39.044426,34.312191 39.690571,33.966270 
z"/>
<path fill="#403216" opacity="1.000000" stroke="none" 
	d="
M38.206413,29.010391 
	C38.428997,29.006878 38.631325,29.267384 38.856216,29.779699 
	C38.647911,29.779142 38.417034,29.526777 38.206413,29.010391 
z"/>
<path fill="#F4F4F4" opacity="1.000000" stroke="none" 
	d="
M186.017212,98.569534 
	C186.419952,98.578835 186.598801,98.809746 186.883759,99.465714 
	C186.591019,99.524223 186.192184,99.157677 186.017212,98.569534 
z"/>
<path fill="#F5F5F5" opacity="1.000000" stroke="none" 
	d="
M117.055283,109.605698 
	C115.613312,109.945709 114.198952,109.941055 112.359680,109.897385 
	C111.888664,109.531601 111.834846,109.205719 111.797653,108.877937 
	C111.506920,106.315323 111.219383,103.752342 110.930847,101.189476 
	C113.320763,101.034744 115.710670,100.880013 118.755760,100.682861 
	C117.865715,99.200752 116.736481,97.320351 115.520920,95.296196 
	C116.717369,94.193108 118.155708,92.866997 119.868744,91.287628 
	C120.823883,91.947021 121.948608,92.723495 123.639168,93.890610 
	C123.031693,90.531326 122.516945,87.684837 122.002472,84.422073 
	C125.159050,83.750908 128.315353,83.496025 131.471664,83.241135 
	C131.558853,83.991081 131.646057,84.741020 131.733246,85.490959 
	C129.690521,85.947166 127.647797,86.403366 124.845230,87.029259 
	C127.093468,90.316132 130.079315,94.150665 125.585861,97.658951 
	C124.605759,98.424171 122.518135,97.770851 120.545456,97.770851 
	C123.559975,102.520546 119.283867,105.557236 117.055283,109.605698 
M112.267326,102.909805 
	C112.759514,103.878677 113.251701,104.847557 113.743881,105.816429 
	C114.219742,105.459564 114.695602,105.102699 115.171463,104.745834 
	C114.358078,103.972832 113.544685,103.199821 112.267326,102.909805 
z"/>
<path fill="#D7D7D7" opacity="1.000000" stroke="none" 
	d="
M146.694290,113.702393 
	C146.323288,114.114563 146.071915,114.103859 145.637314,114.117661 
	C144.992340,107.458397 144.529816,100.792892 144.063156,94.067703 
	C145.628082,94.067703 146.890762,94.067703 148.522461,94.056641 
	C144.561462,97.826363 145.922592,102.742645 146.242752,107.438232 
	C146.375366,109.383194 146.620651,111.320480 146.694290,113.702393 
z"/>
<path fill="#D7D7D7" opacity="1.000000" stroke="none" 
	d="
M143.938812,83.048393 
	C144.231888,85.698982 144.520096,87.939110 144.808289,90.179245 
	C144.376404,90.218407 143.944519,90.257576 143.512634,90.296745 
	C143.512634,86.640419 143.512634,82.984093 143.512634,79.327766 
	C143.574966,79.302559 143.637283,79.277351 143.699615,79.252136 
	C143.777725,80.380737 143.855835,81.509338 143.938812,83.048393 
z"/>
<path fill="#D7D7D7" opacity="1.000000" stroke="none" 
	d="
M160.648712,93.707970 
	C158.144516,94.163803 155.367264,94.349411 152.325867,94.267220 
	C154.833038,93.812195 157.604355,93.624969 160.648712,93.707970 
z"/>
<path fill="#F5F5F5" opacity="1.000000" stroke="none" 
	d="
M135.338074,83.607048 
	C135.109528,82.732063 135.145721,82.038063 135.181915,81.344070 
	C136.067902,82.079948 136.953888,82.815834 137.839874,83.551712 
	C137.094193,83.630486 136.348511,83.709267 135.338074,83.607048 
z"/>
<path fill="#F5F5F5" opacity="1.000000" stroke="none" 
	d="
M132.860413,79.765793 
	C132.229263,79.901138 131.680801,79.732544 131.132339,79.563950 
	C131.550217,78.966949 131.968079,78.369949 132.385956,77.772949 
	C132.571686,78.335915 132.757401,78.898880 132.860413,79.765793 
z"/>
<path fill="#C6C6C6" opacity="1.000000" stroke="none" 
	d="
M143.505981,76.513596 
	C143.484543,76.521164 143.527405,76.506020 143.505981,76.513596 
z"/>
<path fill="#E7E7E7" opacity="1.000000" stroke="none" 
	d="
M83.046036,49.415836 
	C83.596138,49.128220 84.131477,49.293083 84.713776,50.030460 
	C85.171814,57.404797 85.582893,64.206619 85.993973,71.008438 
	C85.827782,71.557510 85.661598,72.106583 85.253738,72.820663 
	C81.299187,73.315659 77.586304,73.645653 73.454422,73.981567 
	C74.815468,73.331612 76.564720,72.225220 78.381111,72.101059 
	C84.828331,71.660362 85.461510,70.783745 84.448326,64.595848 
	C83.653168,59.739529 83.480499,54.781284 83.046036,49.415836 
z"/>
<path fill="#FEFEFE" opacity="1.000000" stroke="none" 
	d="
M86.432831,71.006416 
	C85.582893,64.206619 85.171814,57.404797 84.884842,50.259171 
	C86.801369,50.843811 88.593796,51.772259 90.693886,52.839050 
	C91.688599,59.181751 97.375381,60.695827 101.272354,63.876801 
	C101.852272,64.350166 102.658203,64.546646 103.397034,64.888557 
	C102.487778,65.843422 101.774139,66.592857 101.032455,67.668350 
	C100.389069,68.644104 99.834793,69.777359 99.148369,69.864029 
	C95.073120,70.378571 90.967262,70.650757 86.432831,71.006416 
z"/>
<path fill="#D7D7D7" opacity="1.000000" stroke="none" 
	d="
M62.020325,100.362366 
	C64.859787,99.803047 67.718277,99.605263 70.786438,99.703888 
	C65.744797,105.141098 64.958839,105.204597 62.020325,100.362366 
z"/>
<path fill="#F6F5EF" opacity="1.000000" stroke="none" 
	d="
M41.059898,35.498669 
	C41.327976,34.989273 41.656769,34.807610 42.104828,34.361271 
	C43.910393,35.730522 45.596695,37.364445 48.259407,39.944454 
	C49.615837,39.032597 51.905251,37.493553 54.534782,35.853683 
	C54.917427,36.887802 54.959949,38.022755 55.002716,39.580818 
	C54.540024,39.851959 53.982986,39.450764 53.628052,39.584785 
	C46.508156,42.273304 46.512848,42.285728 41.059898,35.498669 
z"/>
<path fill="#F6F5EF" opacity="1.000000" stroke="none" 
	d="
M54.532650,46.549805 
	C54.477577,46.582672 54.587723,46.516941 54.532650,46.549805 
z"/>
<path fill="#403216" opacity="1.000000" stroke="none" 
	d="
M38.276844,26.342094 
	C38.025429,26.013460 38.054356,25.485943 38.260674,24.446518 
	C38.438061,23.934610 38.816746,23.827356 38.816746,23.827356 
	C38.816746,23.827356 39.052452,24.041471 39.178131,24.147804 
	C39.054932,24.883831 38.806061,25.513521 38.276844,26.342094 
z"/>
<path fill="#CFBF8B" opacity="1.000000" stroke="none" 
	d="
M38.809799,23.647514 
	C38.816746,23.827356 38.438061,23.934610 38.279121,24.050623 
	C37.901077,23.864513 37.681976,23.562391 37.462872,23.260267 
	C37.733353,23.162567 38.003834,23.064867 38.559204,23.038631 
	C38.844086,23.110094 38.802853,23.467674 38.809799,23.647514 
z"/>
<path fill="#FEFEFE" opacity="1.000000" stroke="none" 
	d="
M112.499313,102.668304 
	C113.544685,103.199821 114.358078,103.972832 115.171463,104.745834 
	C114.695602,105.102699 114.219742,105.459564 113.743881,105.816429 
	C113.251701,104.847557 112.759514,103.878677 112.499313,102.668304 
z"/>
</svg>