<svg version="1.1" id="Layer_1" xmlns="http://www.w3.org/2000/svg" xmlns:xlink="http://www.w3.org/1999/xlink" x="0px" y="0px"
	 width="1024" height="276.742" viewBox="0 0 1024 276.742" enable-background="new 0 0 552 452" xml:space="preserve">
<path fill="#000000" opacity="1.000000" stroke="none" 
	d="
M324.000000,453.000000 
	C217.333359,453.000000 111.166695,452.978821 5.000181,453.095428 
	C1.576335,453.099182 0.902604,452.423950 0.905151,449.000031 
	C1.015254,301.000122 1.015239,153.000137 0.905189,5.000254 
	C0.902643,1.576890 1.575842,0.903396 4.999870,0.905418 
	C186.333115,1.012465 367.666412,1.012452 548.999634,0.905485 
	C552.422607,0.903466 553.097412,1.575354 553.094849,4.999753 
	C552.984741,152.999634 552.984802,300.999603 553.094788,448.999512 
	C553.097351,452.422333 552.425598,453.102081 549.000244,453.096313 
	C474.167023,452.970032 399.333466,453.000000 324.000000,453.000000 
z"/>
<path fill="#FE0404" opacity="1.000000" stroke="none" 
	d="
M130.301254,274.696960 
	C127.130630,278.066467 123.217926,278.448120 119.438080,279.153198 
	C112.853325,280.381409 113.111046,280.274231 110.583122,273.356964 
	C107.393211,264.628235 104.186859,255.923096 101.959770,246.480621 
	C101.495979,245.498489 101.530746,244.750381 101.134712,243.782837 
	C101.032234,243.447678 101.058571,243.476547 101.059967,243.496033 
	C100.528404,242.599152 100.513351,241.572067 100.183212,240.268402 
	C99.936897,239.977127 100.000977,239.994186 99.989609,240.025330 
	C98.913963,238.767273 100.196419,236.864502 98.510506,235.542618 
	C98.438522,231.260986 96.246773,227.697922 95.142487,223.482880 
	C94.869232,223.020035 94.751312,222.904205 94.652191,222.774063 
	C94.553505,222.644501 94.473724,222.500534 94.385658,222.362885 
	C92.931000,223.382904 93.546814,224.919739 93.517540,226.227875 
	C93.319458,235.080734 93.783005,243.940582 93.063698,253.113708 
	C92.876099,253.436249 92.923119,253.424637 92.934158,253.446198 
	C91.892281,264.660492 92.821861,275.882477 92.301140,287.543396 
	C88.158249,289.695953 84.418633,292.007690 79.757980,292.935974 
	C79.105927,293.069061 78.820488,293.246124 78.108574,293.157776 
	C76.997719,291.858093 77.018768,290.678436 77.020569,289.515930 
	C77.067619,259.052490 76.837395,228.588699 77.249741,197.648071 
	C77.717766,189.510834 77.717773,189.503616 85.572601,189.513702 
	C89.728806,189.519043 93.885254,189.465164 98.509674,189.691284 
	C104.103874,197.751373 105.041267,207.126816 107.927811,215.816925 
	C110.616714,223.912064 112.731544,232.197876 115.973099,240.318344 
	C115.973099,238.490799 115.973099,236.663254 115.910530,234.422531 
	C115.140366,226.829559 115.595314,219.636963 115.860939,212.026398 
	C116.111664,211.603577 116.037910,211.576767 116.051376,211.539917 
	C117.042221,206.293472 116.218491,201.027237 116.735550,195.368408 
	C116.936440,193.585556 116.960815,192.231903 116.948517,190.473465 
	C121.608032,188.831161 126.384941,189.796600 131.574219,189.691879 
	C133.010391,194.249756 132.238647,198.724106 132.489410,203.645264 
	C132.405792,209.292847 132.660324,214.461456 132.110809,220.045532 
	C131.868576,220.465927 131.904373,220.447296 131.923676,220.453217 
	C130.995178,227.970367 131.742172,235.515640 131.489456,243.514374 
	C131.082947,254.086502 132.424973,264.239258 130.301254,274.696960 
z"/>
<path fill="#FE0505" opacity="1.000000" stroke="none" 
	d="
M430.279175,247.067780 
	C430.126892,246.665421 429.978333,246.407898 429.967590,246.259644 
	C428.986664,240.870804 429.763245,235.580872 429.510468,229.860031 
	C429.483765,224.865906 429.567383,220.331390 429.315186,215.370789 
	C428.290588,206.765747 429.329834,199.273087 436.008942,193.411484 
	C440.779968,189.224365 446.746796,188.450043 452.434540,188.189987 
	C461.416412,187.779373 470.034790,189.329468 476.558105,196.881622 
	C480.235718,201.139252 481.121277,206.059692 481.902252,211.590149 
	C481.041565,215.444183 481.760345,218.949005 481.210571,222.792603 
	C475.900696,223.976898 471.064484,221.547394 465.570068,221.904846 
	C463.876648,218.575912 464.753906,215.190308 464.698029,211.430695 
	C462.441162,203.431900 461.432098,202.799637 453.975433,202.947021 
	C451.243134,203.001022 449.676086,204.093414 448.557617,206.747711 
	C446.529663,212.080917 447.909088,217.372284 447.511322,222.578400 
	C447.372620,224.394211 447.489166,226.229538 447.489441,228.521179 
	C447.488861,235.178009 447.489349,241.369583 447.489563,248.014160 
	C447.920929,253.417862 446.551331,258.472565 448.594116,263.710938 
	C449.975006,268.932587 454.765076,272.761139 459.359314,273.082031 
	C461.826416,273.254333 462.028412,271.209930 463.626129,270.052124 
	C465.249390,262.801819 464.072205,255.644470 464.824402,248.134338 
	C463.267944,245.734711 460.562439,245.949081 458.315887,245.299652 
	C456.081573,244.653778 455.830078,243.630478 456.094696,241.439087 
	C456.840454,239.147751 456.602936,237.170105 456.457489,235.269424 
	C456.228394,232.275345 457.317169,231.018921 460.717743,231.759933 
	C465.076294,231.509445 468.990723,231.847229 472.641907,233.380859 
	C474.423126,234.129044 476.135040,233.810181 478.278931,234.082535 
	C481.421265,234.354965 481.529938,236.204071 481.516022,238.364883 
	C481.454163,247.964203 481.488892,257.564148 481.489655,267.614868 
	C481.723389,272.773376 481.006226,277.279388 478.427612,281.806305 
	C478.200348,282.173615 478.178894,282.074219 478.226013,282.093353 
	C478.273102,282.112488 477.805817,282.262207 477.805817,282.262207 
	C477.805817,282.262207 477.953278,282.730225 478.188599,282.659973 
	C474.092743,289.825317 467.265961,288.613770 460.795166,287.387634 
	C448.591064,285.075073 438.377533,279.645721 432.856781,267.261658 
	C429.467224,260.725006 430.833496,253.992310 430.279175,247.067780 
z"/>
<path fill="#FE0405" opacity="1.000000" stroke="none" 
	d="
M362.315063,196.341202 
	C361.801971,189.002106 361.801971,189.001663 368.664398,189.000061 
	C372.490448,188.999161 376.331360,189.210068 380.138458,188.941483 
	C384.012573,188.668137 385.824707,189.967255 387.183990,193.874954 
	C391.484772,206.238953 396.405640,218.387222 401.331299,230.872437 
	C403.620667,227.383484 401.953278,223.343002 402.510681,219.058670 
	C402.415253,215.185471 402.712158,211.728363 402.197632,207.873352 
	C402.053284,207.464584 402.077332,207.427032 402.098999,207.432266 
	C400.837311,202.010239 401.805206,196.502640 401.637024,190.565704 
	C406.464722,188.809326 411.278107,189.807709 416.505737,189.679398 
	C419.328888,195.433182 417.331757,201.319672 418.073486,207.505188 
	C418.943176,212.601654 418.271606,217.273651 418.489502,222.386292 
	C418.488861,226.842758 418.489288,230.835373 418.489502,235.283173 
	C418.515564,240.842392 418.434387,245.946686 418.682800,251.474182 
	C418.892548,255.597198 418.952240,259.296509 419.036987,263.451904 
	C419.113068,267.132111 420.997589,270.576569 417.461121,273.295746 
	C412.051575,273.008698 407.544983,270.894867 402.823700,269.757935 
	C399.383881,268.929626 398.935150,265.000061 398.172760,262.159943 
	C395.812988,253.369049 391.981750,245.197464 388.482574,236.864090 
	C386.056854,231.087280 384.166840,225.085510 382.124176,218.845581 
	C382.051941,218.374847 381.893036,218.242798 381.548279,217.862762 
	C381.464905,217.234253 381.488098,216.849792 381.285431,216.200378 
	C381.151764,215.939957 381.040161,215.688721 381.080811,215.557404 
	C380.234467,214.367310 379.588959,214.385223 379.529449,215.891785 
	C379.421600,218.623520 379.502655,221.359253 379.489105,224.472885 
	C379.489502,227.602036 379.489014,230.351562 379.489441,233.529434 
	C379.566956,236.863632 379.321960,239.774902 379.779663,243.090500 
	C379.923798,243.504196 380.021027,243.611404 379.978607,243.670029 
	C381.094299,247.228104 380.203064,250.833725 380.480652,254.819733 
	C379.651459,257.780487 380.368683,260.472778 379.453888,263.404724 
	C374.838196,264.295532 370.758881,262.120819 366.376160,261.940216 
	C364.189758,261.850098 363.981354,260.127808 363.993378,258.363708 
	C364.016968,254.906845 363.990448,251.449646 363.952881,247.533417 
	C362.988220,243.675232 363.802826,240.198898 363.314819,236.368286 
	C363.118561,233.626068 363.072723,231.289108 363.093445,228.519180 
	C363.914948,223.997070 363.357117,219.875412 363.313599,215.386658 
	C363.105682,212.669479 363.049072,210.335892 362.981873,207.565887 
	C361.926727,203.712555 362.837494,200.200409 362.315063,196.341202 
z"/>
<path fill="#FE0404" opacity="1.000000" stroke="none" 
	d="
M143.731140,208.309601 
	C141.358627,196.119934 155.038727,188.516190 164.126068,188.800491 
	C166.360489,188.870407 168.224823,188.037140 170.309189,187.858459 
	C177.553772,187.237473 183.904800,189.509995 189.918472,193.024826 
	C196.080093,196.626144 197.744186,202.401215 196.902802,209.586884 
	C196.087921,213.469925 196.677048,216.953110 196.489349,220.853210 
	C196.489120,224.298019 196.489212,227.300095 196.489380,230.760727 
	C196.443848,234.316025 196.586441,237.414474 196.162079,240.908829 
	C195.920303,241.307724 196.009644,241.391846 195.969391,241.438141 
	C195.564484,242.479538 195.342010,243.490555 195.711960,244.841644 
	C195.660065,253.156387 190.237076,257.458466 184.253311,261.296753 
	C176.204987,266.459381 166.932434,267.738800 157.782425,268.825256 
	C149.119919,269.853790 143.621979,264.694672 143.125626,255.767700 
	C143.032059,254.085342 141.068497,252.501373 142.765533,250.350113 
	C142.176483,238.586655 142.617569,227.188736 142.789459,215.357193 
	C143.009186,214.920212 143.018005,214.989273 142.983612,214.994690 
	C144.087799,212.982178 143.213715,210.771072 143.731140,208.309601 
z"/>
<path fill="#FE0303" opacity="1.000000" stroke="none" 
	d="
M302.335449,225.647400 
	C296.499481,225.229584 290.863464,225.108383 284.782074,224.945801 
	C282.524902,226.888626 283.624542,229.281769 283.553345,231.453064 
	C283.363922,237.228439 283.380890,243.017075 283.536438,248.794388 
	C283.609436,251.505997 282.872650,252.699692 279.943146,252.540009 
	C275.494781,252.297516 271.026611,252.586853 266.146240,252.183868 
	C265.225647,239.353546 265.653015,226.743073 265.510529,213.651062 
	C265.556549,205.433548 265.418854,197.700241 265.849030,189.565247 
	C271.392426,189.116776 276.668152,189.070938 282.397339,189.093323 
	C284.241577,195.512421 283.149292,201.945648 283.477448,208.332443 
	C283.570770,210.148621 283.450806,211.972610 283.704742,214.216156 
	C285.662140,214.436249 287.443542,214.232483 289.620148,214.096985 
	C301.510773,215.444946 301.499329,215.444931 301.516083,204.385162 
	C301.523376,199.573502 301.430725,194.761261 301.804169,189.558823 
	C307.333099,189.120911 312.632538,189.074310 318.384705,189.096130 
	C320.370392,194.604355 318.941315,200.186630 319.788086,206.103745 
	C319.944946,206.540497 319.922241,206.578461 319.900513,206.574402 
	C320.983704,208.245453 320.455597,210.125717 320.462616,211.905258 
	C320.512512,224.515640 320.528870,237.126587 320.439941,249.736542 
	C320.428619,251.344543 321.523102,253.529419 318.475342,254.286865 
	C317.022400,254.425629 316.050659,254.693115 314.696228,254.880371 
	C310.717621,253.175690 306.805573,253.839798 302.795715,252.913513 
	C301.701294,247.886765 301.278137,243.168152 301.872498,238.017334 
	C302.107300,237.634064 302.034485,237.597443 302.052582,237.560928 
	C302.958099,233.693680 302.214020,229.797470 302.335449,225.647400 
z"/>
<path fill="#FE0404" opacity="1.000000" stroke="none" 
	d="
M220.815277,204.161469 
	C221.740326,199.648209 219.867828,198.267471 215.584900,199.002625 
	C211.449493,200.027176 207.669388,199.296494 203.541473,199.128189 
	C203.117889,196.189941 203.073059,193.535706 203.097702,190.441589 
	C207.260544,188.905151 211.430771,189.591537 215.558594,189.549667 
	C228.719879,189.416183 241.883026,189.568161 255.502228,189.316986 
	C256.125885,189.129196 256.292633,189.091721 256.709747,189.109314 
	C257.133209,189.450287 257.389465,189.732162 257.416718,190.037796 
	C258.169983,198.488785 258.166382,198.480133 249.723816,198.494080 
	C246.734390,198.499008 243.743988,198.413727 240.360748,198.810257 
	C239.966080,199.065277 239.978577,198.976852 240.023178,198.978973 
	C239.127930,199.905090 239.618286,201.089401 239.489014,202.589539 
	C239.453674,206.810135 239.564255,210.602921 239.214020,214.778992 
	C239.001389,215.163620 239.003799,215.434967 238.938019,215.553635 
	C237.995621,223.338226 238.728912,231.030914 238.489563,239.160568 
	C238.488998,242.275925 238.489349,244.938141 238.489227,247.600357 
	C238.488907,253.979813 238.488861,253.979813 231.859100,255.562042 
	C228.328979,256.293091 225.005035,255.479401 221.542542,256.906281 
	C219.525604,251.978790 221.000961,246.987854 220.510498,241.610870 
	C220.511093,237.413391 220.510727,233.683853 220.510544,229.487671 
	C220.511063,224.969086 220.510727,220.917145 220.510574,216.394745 
	C220.549011,212.140167 220.430801,208.355118 220.815277,204.161469 
z"/>
<path fill="#FE0303" opacity="1.000000" stroke="none" 
	d="
M333.169922,253.840454 
	C333.059204,253.489502 333.098755,253.478973 333.113464,253.493210 
	C331.744415,248.129730 332.881470,242.656342 332.510498,236.762161 
	C332.511230,231.858932 332.510651,227.433731 332.510559,222.536102 
	C332.511139,217.036148 332.510681,212.008575 332.510559,206.509003 
	C332.529785,200.681412 332.485443,195.325851 332.757324,189.568237 
	C338.332764,189.120041 343.658691,189.073853 349.441162,189.096817 
	C351.103241,192.405533 350.216858,195.770126 350.489441,199.521484 
	C350.488922,203.614365 350.489288,207.251190 350.489502,211.339340 
	C350.516113,216.274048 350.432922,220.757812 350.688416,225.661438 
	C350.900482,229.731583 350.958710,233.381271 351.054504,237.485336 
	C351.964630,241.822495 351.260834,245.758698 351.489563,250.112534 
	C351.487671,252.358734 351.420410,254.159149 351.505280,255.951752 
	C351.596649,257.881744 350.659180,258.604553 348.450348,258.683899 
	C343.554230,259.132294 339.380402,257.297119 334.582581,256.905670 
	C333.137604,256.205139 333.718964,255.026123 333.169922,253.840454 
z"/>
<path fill="#FFEFEF" opacity="1.000000" stroke="none" 
	d="
M77.504333,196.845016 
	C77.593857,228.843628 77.655968,260.434937 77.930977,292.443024 
	C78.231873,293.024170 78.319862,293.188599 78.298820,293.610596 
	C74.685753,294.344849 76.065338,291.630035 76.051201,290.247955 
	C75.942284,279.600525 75.977921,268.951508 75.993973,258.303009 
	C76.024574,238.006683 76.071945,217.710403 76.490639,197.198349 
	C77.071587,196.800995 77.274254,196.619370 77.504333,196.845016 
z"/>
<path fill="#FE0505" opacity="1.000000" stroke="none" 
	d="
M255.498230,189.097153 
	C254.388199,190.542618 252.481766,189.970352 250.721741,189.975296 
	C235.175262,190.019012 219.628616,190.000839 203.624588,190.001343 
	C204.077362,188.088272 205.807220,189.058670 207.103485,189.052887 
	C223.081146,188.981598 239.059280,189.018600 255.498230,189.097153 
z"/>
<path fill="#FFEFEF" opacity="1.000000" stroke="none" 
	d="
M318.192566,254.518738 
	C320.999634,253.967896 319.991913,251.650284 319.985870,250.096497 
	C319.930725,235.915131 319.784637,221.734131 319.771973,207.061676 
	C321.188324,207.228531 321.005127,208.448761 321.004883,209.590820 
	C321.001556,223.803619 320.967529,238.016510 321.019287,252.229111 
	C321.026428,254.189941 320.844391,255.551956 318.192566,254.518738 
z"/>
<path fill="#FEA7A7" opacity="1.000000" stroke="none" 
	d="
M265.730743,251.773621 
	C270.322174,252.008636 274.627319,251.908127 278.920563,252.089966 
	C282.175537,252.227814 283.118927,250.920975 283.000214,247.734711 
	C282.760162,241.292435 282.867371,234.833908 282.977570,228.384583 
	C283.000305,227.054626 282.096588,225.404755 284.057739,224.631622 
	C284.225220,233.173218 284.026031,241.442352 284.056396,249.710632 
	C284.065399,252.155960 283.627655,253.219360 280.850983,253.080429 
	C275.397827,252.807602 269.924866,252.929718 264.322540,252.480957 
	C264.514771,251.686646 264.932922,251.515320 265.730743,251.773621 
z"/>
<path fill="#FF8383" opacity="1.000000" stroke="none" 
	d="
M265.959167,251.523376 
	C265.614166,252.011215 265.206238,252.034637 264.491638,252.065796 
	C265.910950,241.549881 264.602264,230.947906 264.993774,220.389481 
	C265.073853,218.230087 265.017883,216.065659 265.433868,213.430542 
	C265.860809,225.658020 265.878510,238.358490 265.959167,251.523376 
z"/>
<path fill="#FFEFEF" opacity="1.000000" stroke="none" 
	d="
M93.255844,253.163757 
	C92.876099,241.527435 92.876099,229.618622 92.876099,217.126419 
	C94.546448,218.910858 94.716141,220.686264 95.046150,222.751862 
	C92.956841,224.228897 94.135002,226.078949 94.074387,227.524979 
	C93.720184,235.974670 94.500984,244.446152 93.255844,253.163757 
z"/>
<path fill="#FFEFEF" opacity="1.000000" stroke="none" 
	d="
M301.605164,189.265778 
	C302.069946,196.481415 301.989044,203.798691 302.200867,211.107483 
	C302.284363,213.988571 301.754120,215.471970 298.456421,215.076767 
	C295.830078,214.762009 293.146515,214.924393 290.251831,214.520096 
	C293.612030,213.339783 298.572266,215.837997 300.600128,212.853302 
	C302.291168,210.364426 300.961090,205.833527 300.997894,202.207336 
	C301.041321,197.926056 301.115723,193.645111 301.605164,189.265778 
z"/>
<path fill="#FEA7A7" opacity="1.000000" stroke="none" 
	d="
M481.598541,268.595398 
	C481.139221,259.121979 481.108307,249.190430 480.958252,239.260681 
	C480.933899,237.648529 481.946533,235.449631 478.982788,234.441223 
	C481.833374,233.289032 482.075012,235.035416 482.048798,237.549774 
	C481.942444,247.744904 481.993988,257.941681 481.598541,268.595398 
z"/>
<path fill="#FFD4D4" opacity="1.000000" stroke="none" 
	d="
M130.491486,275.061829 
	C130.364182,265.054932 130.676544,255.008347 131.063782,244.500916 
	C131.249542,243.856583 131.360443,243.673080 131.653320,243.754761 
	C131.903610,253.582047 131.981873,263.144135 132.023743,272.706329 
	C132.027634,273.597534 132.386963,274.770294 130.491486,275.061829 
z"/>
<path fill="#FFEFEF" opacity="1.000000" stroke="none" 
	d="
M142.608032,215.111481 
	C143.865784,226.298431 142.604645,237.672150 142.870789,249.513245 
	C141.143692,247.268768 142.111542,244.294388 142.080811,241.465576 
	C141.986084,232.746109 142.145935,224.023880 142.608032,215.111481 
z"/>
<path fill="#FF8383" opacity="1.000000" stroke="none" 
	d="
M92.509285,287.764221 
	C92.199951,276.710175 92.246529,265.418762 92.619156,253.797577 
	C92.918526,264.820801 92.891861,276.173828 92.509285,287.764221 
z"/>
<path fill="#FF8383" opacity="1.000000" stroke="none" 
	d="
M77.697235,196.812759 
	C77.531746,197.252304 77.132812,197.283859 77.000870,197.133240 
	C77.202362,188.992279 77.202431,188.973053 85.621231,189.001511 
	C89.903023,189.015991 94.184525,189.114120 98.722122,189.504486 
	C94.218269,189.894043 89.412621,190.390381 84.710831,189.896973 
	C79.421013,189.341843 77.056923,190.937988 77.697235,196.812759 
z"/>
<path fill="#FEA7A7" opacity="1.000000" stroke="none" 
	d="
M240.436279,199.039368 
	C242.807388,196.633972 246.169907,198.102036 249.252350,198.002411 
	C257.089264,197.749130 257.094727,197.918594 256.981079,189.608215 
	C259.154816,191.858093 257.660797,194.987244 257.879333,197.896088 
	C258.010986,199.648636 256.187286,198.960571 255.205246,198.975189 
	C250.439850,199.046204 245.672882,199.011017 240.436279,199.039368 
z"/>
<path fill="#FEA7A7" opacity="1.000000" stroke="none" 
	d="
M231.882843,255.831573 
	C231.516312,255.655762 231.518997,255.352554 231.556244,255.348221 
	C239.910675,254.381790 237.785217,248.078857 237.895218,242.918869 
	C237.909241,242.260300 237.911652,241.601456 237.972290,240.480652 
	C238.139130,239.858444 238.253143,239.698364 238.611572,239.703094 
	C238.907837,242.666336 238.638809,245.516403 239.078842,248.252411 
	C239.972702,253.810547 237.782562,256.222778 231.882843,255.831573 
z"/>
<path fill="#FEA7A7" opacity="1.000000" stroke="none" 
	d="
M283.925049,214.201416 
	C281.861969,210.738449 283.240173,206.566696 282.984283,202.530411 
	C282.722015,198.393326 282.906464,194.227936 282.873077,189.618256 
	C284.987885,189.847122 283.921875,191.638870 283.941772,192.858093 
	C284.055450,199.824631 283.980347,206.794266 283.925049,214.201416 
z"/>
<path fill="#FEA7A7" opacity="1.000000" stroke="none" 
	d="
M131.916687,243.559021 
	C131.835297,244.019928 131.486938,244.028854 131.312805,244.034454 
	C131.208633,236.417419 131.278625,228.794785 131.645782,220.815643 
	C131.961334,228.005463 131.979706,235.551773 131.916687,243.559021 
z"/>
<path fill="#FE6060" opacity="1.000000" stroke="none" 
	d="
M238.933594,239.419128 
	C238.856003,239.867889 238.439117,239.935303 238.232117,239.976929 
	C238.141754,232.151352 238.258377,224.284164 238.623627,216.044647 
	C238.918564,223.438324 238.964874,231.204346 238.933594,239.419128 
z"/>
<path fill="#FE6060" opacity="1.000000" stroke="none" 
	d="
M430.083557,247.165314 
	C431.784485,253.052307 430.234680,259.870575 432.745728,266.523743 
	C430.094238,264.490845 429.886536,261.324158 429.955566,258.040833 
	C430.028290,254.583206 430.015594,251.123825 430.083557,247.165314 
z"/>
<path fill="#FEA7A7" opacity="1.000000" stroke="none" 
	d="
M265.921204,212.497467 
	C265.843109,212.957550 265.506500,212.967377 265.338135,212.970093 
	C265.194702,205.092834 265.219635,197.212860 265.680634,189.247742 
	C266.077576,196.787537 266.038422,204.412460 265.921204,212.497467 
z"/>
<path fill="#FFEFEF" opacity="1.000000" stroke="none" 
	d="
M301.722687,237.887924 
	C302.310791,242.497894 302.514282,247.361740 302.964355,252.603485 
	C303.051208,253.136932 302.891541,253.292480 302.398926,253.417130 
	C299.916595,248.395798 301.161560,243.243286 301.722687,237.887924 
z"/>
<path fill="#FFEFEF" opacity="1.000000" stroke="none" 
	d="
M464.675232,247.969376 
	C465.406860,255.003235 465.792755,262.274780 464.351959,269.706238 
	C464.071442,262.660431 464.179199,255.433426 464.675232,247.969376 
z"/>
<path fill="#FEA7A7" opacity="1.000000" stroke="none" 
	d="
M447.278198,229.236816 
	C446.840790,221.740448 446.260681,214.508438 447.849670,207.122803 
	C448.173645,213.987915 448.083588,221.033142 447.916931,228.541748 
	C447.709503,229.172073 447.578705,229.338989 447.278198,229.236816 
z"/>
<path fill="#FFEFEF" opacity="1.000000" stroke="none" 
	d="
M115.727348,211.866119 
	C116.074867,218.762466 116.038071,225.921371 115.924622,233.544800 
	C114.098564,226.752274 115.066422,219.432480 115.727348,211.866119 
z"/>
<path fill="#FF8383" opacity="1.000000" stroke="none" 
	d="
M447.041473,229.434357 
	C447.108490,228.967758 447.474335,228.988174 447.657349,228.996658 
	C447.893188,235.389252 447.946045,241.773346 447.932129,248.627869 
	C447.706848,249.225571 447.548401,249.352859 447.211121,249.233231 
	C447.013031,242.624527 446.993744,236.262741 447.041473,229.434357 
z"/>
<path fill="#FF8383" opacity="1.000000" stroke="none" 
	d="
M332.608887,189.111176 
	C333.012115,194.475601 333.017395,199.785004 332.965576,205.560364 
	C332.765198,206.187592 332.622009,206.348846 332.310974,206.233551 
	C332.165741,200.323380 332.188354,194.689758 332.608887,189.111176 
z"/>
<path fill="#FE6060" opacity="1.000000" stroke="none" 
	d="
M220.672272,240.705841 
	C220.945755,245.922501 221.015503,250.925690 221.105438,256.385254 
	C219.486282,256.636902 218.592575,255.438416 219.118683,254.113892 
	C220.715912,250.092667 219.598282,245.959503 220.082932,241.451492 
	C220.263855,240.828430 220.366180,240.660400 220.672272,240.705841 
z"/>
<path fill="#FF8383" opacity="1.000000" stroke="none" 
	d="
M302.285156,253.702759 
	C302.247925,253.293579 302.429840,253.200943 302.911316,253.044861 
	C306.947235,253.014771 310.739136,252.507599 314.313110,254.461777 
	C310.377136,254.539856 306.440704,254.279556 302.285156,253.702759 
z"/>
<path fill="#FFD4D4" opacity="1.000000" stroke="none" 
	d="
M481.129578,269.461060 
	C481.209778,269.052917 481.512909,269.070862 481.664764,269.070557 
	C482.555817,273.746735 481.532654,278.029114 478.567505,282.066467 
	C480.774750,278.448334 480.705322,274.110870 481.129578,269.461060 
z"/>
<path fill="#FFEFEF" opacity="1.000000" stroke="none" 
	d="
M402.389771,189.797913 
	C402.254272,195.561966 402.276917,201.005539 402.210144,206.943298 
	C399.717621,201.576126 401.528168,195.479843 401.512573,189.337250 
	C402.118622,189.270706 402.333282,189.374084 402.389771,189.797913 
z"/>
<path fill="#FFD4D4" opacity="1.000000" stroke="none" 
	d="
M379.581787,223.479279 
	C379.215363,219.580490 379.215363,215.221848 379.215363,210.663193 
	C380.854340,211.675140 380.578064,213.377075 381.172180,215.021957 
	C378.687164,217.641525 380.611969,220.530441 379.581787,223.479279 
z"/>
<path fill="#FF8383" opacity="1.000000" stroke="none" 
	d="
M319.986847,206.035614 
	C317.703705,201.173828 319.512451,195.545792 318.859863,189.619843 
	C321.365082,191.143875 319.749817,193.854187 319.968170,196.200394 
	C320.255249,199.285660 320.032349,202.418396 319.986847,206.035614 
z"/>
<path fill="#FFEFEF" opacity="1.000000" stroke="none" 
	d="
M332.795288,235.743683 
	C333.145142,241.508713 333.278778,247.019501 333.270325,253.018860 
	C330.681091,248.123459 332.613708,242.444565 332.089539,236.475220 
	C332.304108,235.839233 332.441620,235.664337 332.795288,235.743683 
z"/>
<path fill="#FFEFEF" opacity="1.000000" stroke="none" 
	d="
M429.696594,228.769455 
	C429.957062,234.425369 430.028748,239.798508 430.028625,245.641510 
	C427.891296,240.839737 429.540527,235.356522 429.107239,229.537918 
	C429.286255,228.882233 429.397034,228.684448 429.696594,228.769455 
z"/>
<path fill="#FE6060" opacity="1.000000" stroke="none" 
	d="
M447.003235,249.452393 
	C447.032318,248.986313 447.447937,249.047974 447.656616,249.073135 
	C448.595642,253.775513 446.979980,258.628937 448.882385,263.646179 
	C446.042633,263.263916 447.172119,260.895294 447.054321,259.172211 
	C446.844330,256.100159 446.981903,253.004349 447.003235,249.452393 
z"/>
<path fill="#FE6060" opacity="1.000000" stroke="none" 
	d="
M418.895996,251.442474 
	C417.083466,246.950623 418.445160,241.846344 418.448822,236.368439 
	C418.869843,240.933868 418.914490,245.960449 418.895996,251.442474 
z"/>
<path fill="#FFEFEF" opacity="1.000000" stroke="none" 
	d="
M132.240417,220.183136 
	C131.871597,215.285599 131.874619,210.105286 132.345413,204.482788 
	C132.958542,209.329880 133.368561,214.622513 132.240417,220.183136 
z"/>
<path fill="#FEA7A7" opacity="1.000000" stroke="none" 
	d="
M332.072144,206.424164 
	C332.143127,205.957016 332.526581,205.983063 332.717499,206.004700 
	C332.972839,211.043350 333.037292,216.060349 333.042969,221.541367 
	C332.837158,222.175201 332.690063,222.345032 332.344299,222.242645 
	C332.097473,216.944077 332.049316,211.917694 332.072144,206.424164 
z"/>
<path fill="#FE6060" opacity="1.000000" stroke="none" 
	d="
M116.540359,195.164764 
	C117.077263,200.253296 117.383430,205.568878 116.404312,211.188751 
	C116.099449,206.132141 116.134056,200.761215 116.540359,195.164764 
z"/>
<path fill="#FE6060" opacity="1.000000" stroke="none" 
	d="
M132.187073,189.866241 
	C127.240677,190.017807 122.544777,189.990433 117.380363,190.015869 
	C117.282425,187.986557 118.906181,189.122955 119.867989,189.085754 
	C123.629166,188.940277 127.399895,189.041519 131.636444,189.109818 
	C132.216415,189.341476 132.327011,189.514389 132.187073,189.866241 
z"/>
<path fill="#FFD4D4" opacity="1.000000" stroke="none" 
	d="
M418.594238,222.463425 
	C418.143036,218.258331 418.064484,213.577194 418.055542,208.432312 
	C419.981750,212.546860 418.553223,217.322433 418.594238,222.463425 
z"/>
<path fill="#FE6060" opacity="1.000000" stroke="none" 
	d="
M379.618286,263.633942 
	C379.277008,261.377533 378.859436,258.929596 379.856384,256.252472 
	C380.229340,255.816528 380.322601,255.652344 380.624146,255.680115 
	C380.645294,258.413788 381.864777,261.122223 379.618286,263.633942 
z"/>
<path fill="#FFD4D4" opacity="1.000000" stroke="none" 
	d="
M131.987930,190.504791 
	C131.936569,190.045197 132.079819,189.618256 132.092834,189.393417 
	C134.003311,193.717087 132.539368,198.476181 132.896362,203.578293 
	C132.813187,204.040604 132.469940,204.044495 132.298737,204.032318 
	C132.098114,199.668213 132.068710,195.316284 131.987930,190.504791 
z"/>
<path fill="#FE6060" opacity="1.000000" stroke="none" 
	d="
M402.681519,190.080505 
	C402.146240,189.970490 402.060852,189.822571 401.939728,189.420990 
	C406.760406,189.158524 411.616821,189.149734 416.720703,189.477066 
	C412.355927,189.889679 407.743652,189.966156 402.681519,190.080505 
z"/>
<path fill="#FE6060" opacity="1.000000" stroke="none" 
	d="
M350.904602,225.610733 
	C349.007477,221.766541 350.425476,217.250870 350.078278,212.381500 
	C350.258453,211.773636 350.387482,211.631302 350.675720,211.729218 
	C350.878937,216.359497 350.922943,220.749527 350.904602,225.610733 
z"/>
<path fill="#FFD4D4" opacity="1.000000" stroke="none" 
	d="
M332.078613,222.434952 
	C332.145660,221.970444 332.564789,221.991623 332.774506,221.998505 
	C333.042999,226.363235 333.101776,230.721069 333.086029,235.538422 
	C333.011505,235.997925 332.589355,236.022415 332.377991,236.018280 
	C332.114960,231.642578 332.063263,227.271011 332.078613,222.434952 
z"/>
<path fill="#FF8383" opacity="1.000000" stroke="none" 
	d="
M302.132385,225.739227 
	C302.812469,229.153412 303.137909,232.972107 302.365540,237.175964 
	C302.090179,233.725494 302.109711,229.926590 302.132385,225.739227 
z"/>
<path fill="#FEA7A7" opacity="1.000000" stroke="none" 
	d="
M429.985229,228.594727 
	C429.885406,229.052246 429.531281,229.087692 429.353394,229.083862 
	C429.117126,224.677719 429.058777,220.275406 429.082794,215.408600 
	C431.264313,219.216812 429.621735,223.750427 429.985229,228.594727 
z"/>
<path fill="#FE6060" opacity="1.000000" stroke="none" 
	d="
M460.908875,231.600479 
	C457.815857,231.362549 456.632782,232.813538 456.961334,236.034760 
	C457.109497,237.487701 456.829773,238.984268 456.452850,240.749451 
	C456.106598,239.073364 456.243103,237.080505 455.957184,235.150208 
	C455.351013,231.057846 457.326508,230.369736 460.908875,231.600479 
z"/>
<path fill="#FEA7A7" opacity="1.000000" stroke="none" 
	d="
M402.724762,218.764465 
	C402.685486,223.250320 404.154846,227.565689 401.867004,231.403046 
	C402.455688,227.410843 401.764008,223.635254 402.080505,219.437531 
	C402.288055,218.818527 402.423187,218.657700 402.724762,218.764465 
z"/>
<path fill="#FEA7A7" opacity="1.000000" stroke="none" 
	d="
M418.151093,223.401062 
	C418.221619,222.939453 418.511108,222.897827 418.657410,222.894592 
	C418.855682,226.929184 418.907684,230.966995 418.892456,235.456055 
	C418.825226,235.907288 418.501740,235.903076 418.340179,235.896103 
	C418.145935,231.880310 418.113251,227.871490 418.151093,223.401062 
z"/>
<path fill="#FFEFEF" opacity="1.000000" stroke="none" 
	d="
M239.391479,214.952530 
	C238.969650,211.087723 238.937912,207.011841 238.968414,202.475494 
	C239.163177,201.841629 239.295685,201.668198 239.640228,201.744217 
	C239.828705,206.242920 239.805130,210.492188 239.391479,214.952530 
z"/>
<path fill="#FFD4D4" opacity="1.000000" stroke="none" 
	d="
M351.246796,251.239410 
	C351.025665,246.940506 350.983643,242.901871 351.016846,238.401489 
	C353.068451,241.874924 351.516998,246.071365 351.924011,250.576355 
	C351.711365,251.189957 351.568604,251.344833 351.246796,251.239410 
z"/>
<path fill="#FFD4D4" opacity="1.000000" stroke="none" 
	d="
M220.731201,215.739044 
	C220.949127,220.007019 220.996094,224.029816 220.959259,228.507004 
	C220.755157,229.145233 220.634827,229.329102 220.346680,229.229309 
	C220.132690,224.923950 220.086533,220.902267 220.113342,216.420441 
	C220.310944,215.804840 220.435577,215.649368 220.731201,215.739044 
z"/>
<path fill="#FE6060" opacity="1.000000" stroke="none" 
	d="
M363.114136,215.466156 
	C364.744446,219.099854 363.986694,223.308411 363.459473,227.788940 
	C363.128632,224.033905 363.097290,219.981567 363.114136,215.466156 
z"/>
<path fill="#FEA7A7" opacity="1.000000" stroke="none" 
	d="
M220.102386,229.405045 
	C220.178833,228.945633 220.527451,228.940521 220.701447,228.950958 
	C220.906448,232.645035 220.937439,236.328690 220.922211,240.465820 
	C220.876007,240.919312 220.519653,240.966125 220.340576,240.981293 
	C220.116318,237.285782 220.071121,233.575119 220.102386,229.405045 
z"/>
<path fill="#FFEFEF" opacity="1.000000" stroke="none" 
	d="
M380.908203,255.427261 
	C380.832428,255.872086 380.477631,255.884048 380.306854,255.932388 
	C380.022461,252.213760 379.908875,248.446808 379.865723,244.204254 
	C382.114380,247.309631 380.509552,251.242828 380.908203,255.427261 
z"/>
<path fill="#FFD4D4" opacity="1.000000" stroke="none" 
	d="
M417.216187,273.508850 
	C421.043854,271.151459 418.039551,267.532532 418.985718,264.351715 
	C420.982147,266.854065 419.782318,270.103424 419.825562,273.199829 
	C419.843872,274.511108 418.300018,273.791443 417.216187,273.508850 
z"/>
<path fill="#FEA7A7" opacity="1.000000" stroke="none" 
	d="
M350.902466,211.513336 
	C350.834900,211.969452 350.481689,211.948364 350.305542,211.932159 
	C350.099335,208.231903 350.069275,204.547836 350.425049,200.389587 
	C350.863953,203.629349 350.916992,207.343292 350.902466,211.513336 
z"/>
<path fill="#FFEFEF" opacity="1.000000" stroke="none" 
	d="
M221.024963,215.535233 
	C220.902161,215.984207 220.544800,215.955734 220.365555,215.958008 
	C220.218185,212.043152 220.250076,208.126007 220.667419,203.980072 
	C221.084534,207.529617 221.116165,211.307938 221.024963,215.535233 
z"/>
<path fill="#FFD4D4" opacity="1.000000" stroke="none" 
	d="
M203.235916,199.278625 
	C206.854630,198.842758 210.546539,198.841324 214.701935,198.920547 
	C211.324234,201.086166 207.279556,199.781342 203.235916,199.278625 
z"/>
<path fill="#FFD4D4" opacity="1.000000" stroke="none" 
	d="
M350.891418,199.475372 
	C350.810883,199.915405 350.498779,199.920654 350.343353,199.934616 
	C350.100189,196.651413 350.012421,193.354233 349.911194,189.611511 
	C352.420013,192.220184 350.319519,195.777588 350.891418,199.475372 
z"/>
<path fill="#FEA7A7" opacity="1.000000" stroke="none" 
	d="
M351.006714,251.403351 
	C351.067688,250.979126 351.460571,251.011703 351.657349,251.023392 
	C351.900360,252.805099 351.798859,254.594452 352.027130,256.340668 
	C352.376465,259.012970 350.904938,259.244873 348.465668,258.904327 
	C351.937134,257.718689 350.902191,254.548920 351.006714,251.403351 
z"/>
<path fill="#FEA7A7" opacity="1.000000" stroke="none" 
	d="
M481.380005,222.959824 
	C481.051880,219.618210 481.108459,216.063766 481.499420,212.253952 
	C481.810760,215.581375 481.787720,219.164200 481.380005,222.959824 
z"/>
<path fill="#FFEFEF" opacity="1.000000" stroke="none" 
	d="
M464.483887,211.210983 
	C464.938904,214.309250 465.033234,217.625610 465.133850,221.388519 
	C462.733734,218.568451 464.555664,214.888596 464.483887,211.210983 
z"/>
<path fill="#FEA7A7" opacity="1.000000" stroke="none" 
	d="
M196.283157,221.271301 
	C196.130249,217.536819 196.156998,214.041977 196.509171,210.289154 
	C196.883896,213.397141 196.933228,216.763107 196.905518,220.582764 
	C196.706589,221.194595 196.584702,221.352753 196.283157,221.271301 
z"/>
<path fill="#FF8383" opacity="1.000000" stroke="none" 
	d="
M402.940125,218.575928 
	C402.891174,219.032059 402.522461,219.000214 402.337677,218.989792 
	C402.101135,215.473053 402.049347,211.966721 402.025421,207.962494 
	C404.081757,210.865570 402.532684,214.580734 402.940125,218.575928 
z"/>
<path fill="#FFD4D4" opacity="1.000000" stroke="none" 
	d="
M362.084045,196.386627 
	C364.229431,199.196320 362.544891,202.815308 363.053833,206.674347 
	C360.820312,203.872101 362.552124,200.249634 362.084045,196.386627 
z"/>
<path fill="#FFD4D4" opacity="1.000000" stroke="none" 
	d="
M363.087891,236.415176 
	C365.131653,239.217636 363.575531,242.784790 363.995544,246.622131 
	C361.901978,243.824875 363.515839,240.251678 363.087891,236.415176 
z"/>
<path fill="#FFD4D4" opacity="1.000000" stroke="none" 
	d="
M196.012802,221.476700 
	C196.103500,221.031662 196.465912,221.044403 196.647186,221.040436 
	C196.874756,224.071838 196.921066,227.107224 196.889526,230.593094 
	C196.685928,231.197311 196.560165,231.351028 196.264404,231.260101 
	C196.036972,227.984222 195.979538,224.952972 196.012802,221.476700 
z"/>
<path fill="#FEA7A7" opacity="1.000000" stroke="none" 
	d="
M379.135437,224.389191 
	C379.215363,223.939148 379.503113,223.888184 379.649200,223.882446 
	C379.852692,226.956482 379.910095,230.036255 379.905029,233.570282 
	C379.697479,234.178589 379.552338,234.332642 379.259125,234.205887 
	C379.092499,230.896469 379.073975,227.867844 379.135437,224.389191 
z"/>
<path fill="#FFEFEF" opacity="1.000000" stroke="none" 
	d="
M195.965729,231.460663 
	C196.094421,231.015457 196.452347,231.047211 196.632019,231.045395 
	C197.027756,234.307770 197.281387,237.572479 196.297241,241.066406 
	C195.892548,238.173767 195.864792,235.039810 195.965729,231.460663 
z"/>
<path fill="#FE6060" opacity="1.000000" stroke="none" 
	d="
M379.051880,234.371796 
	C379.111023,233.925079 379.475433,233.984604 379.658997,234.004578 
	C379.896973,236.857346 379.951385,239.690155 379.964783,243.013580 
	C377.996124,240.782333 379.343750,237.709366 379.051880,234.371796 
z"/>
<path fill="#FF8383" opacity="1.000000" stroke="none" 
	d="
M143.540527,208.132721 
	C143.848907,210.199600 143.791809,212.456741 143.341949,214.856995 
	C143.024475,212.774384 143.099747,210.548676 143.540527,208.132721 
z"/>
<path fill="#FEA7A7" opacity="1.000000" stroke="none" 
	d="
M98.413818,235.684662 
	C100.830307,235.698135 99.799004,238.041992 100.217682,239.743073 
	C97.704308,239.280090 99.826065,237.068665 98.413818,235.684662 
z"/>
<path fill="#FEA7A7" opacity="1.000000" stroke="none" 
	d="
M239.934143,201.624512 
	C239.852264,201.993668 239.441376,202.002106 239.236023,202.008575 
	C239.117172,201.012878 239.203690,200.010696 239.678986,198.994812 
	C240.050522,199.739197 240.033264,200.497284 239.934143,201.624512 
z"/>
<path fill="#FE6060" opacity="1.000000" stroke="none" 
	d="
M333.013123,253.909485 
	C334.322601,253.973709 334.011017,255.122040 334.162872,256.458801 
	C332.220734,256.748230 333.235260,255.230179 333.013123,253.909485 
z"/>
<path fill="#FE6060" opacity="1.000000" stroke="none" 
	d="
M195.918869,244.678467 
	C194.602554,244.223434 194.951538,243.072052 195.635040,241.699432 
	C195.952484,242.398758 195.975861,243.313080 195.918869,244.678467 
z"/>
<path fill="#FEA7A7" opacity="1.000000" stroke="none" 
	d="
M99.952400,240.376755 
	C101.554909,240.284317 101.110733,241.801331 101.321671,243.148407 
	C99.916374,242.914047 99.853859,241.880463 99.952400,240.376755 
z"/>
<path fill="#FFD4D4" opacity="1.000000" stroke="none" 
	d="
M381.166077,216.158600 
	C381.269440,216.206924 381.413269,216.466354 381.493103,216.744202 
	C381.529694,216.871536 381.440399,217.035049 381.385315,217.398483 
	C381.301727,217.202286 381.241058,216.789780 381.166077,216.158600 
z"/>
<path fill="#FEA7A7" opacity="1.000000" stroke="none" 
	d="
M101.002037,243.838287 
	C102.110336,243.633850 102.147713,244.454666 102.043213,245.687073 
	C100.942856,245.808884 100.970695,245.011993 101.002037,243.838287 
z"/>
<path fill="#FFD4D4" opacity="1.000000" stroke="none" 
	d="
M382.182373,218.474792 
	C382.210876,218.506912 382.300018,218.352249 382.236694,218.355621 
	C382.173340,218.358994 382.153870,218.442657 382.182373,218.474792 
z"/>
<path fill="#FFD4D4" opacity="1.000000" stroke="none" 
	d="
M478.401886,282.465515 
	C478.330109,282.497192 478.249115,282.354736 478.138794,282.326294 
	C478.030670,282.298401 477.892670,282.386597 477.767761,282.423859 
	C477.893829,282.451721 478.019928,282.479584 478.209534,282.309967 
	C478.273102,282.112488 478.379852,282.341248 478.401886,282.465515 
z"/>
<path fill="#FF8383" opacity="1.000000" stroke="none" 
	d="
M78.474762,293.861145 
	C78.170998,293.700623 78.152199,293.533081 78.138634,293.112640 
	C78.352180,292.836365 78.560493,292.812927 79.080070,292.840759 
	C79.180794,293.212677 78.970261,293.533417 78.474762,293.861145 
z"/>
<path fill="#000000" opacity="1.000000" stroke="none" 
	d="
M161.692169,206.482788 
	C162.996231,200.856445 165.938553,199.158829 172.794312,200.038345 
	C177.128036,200.594330 178.329132,203.581635 178.009094,207.526947 
	C177.942169,208.351913 178.016815,209.188354 178.094727,210.443542 
	C178.848541,214.552444 178.325943,218.272797 178.489471,222.436646 
	C178.327789,230.591843 179.004990,238.313126 177.426178,246.354843 
	C175.623093,254.800217 167.079926,258.523621 160.920975,253.414307 
	C160.142838,248.647446 160.686890,244.231262 160.510590,239.357269 
	C160.574387,235.379486 160.376617,231.874435 160.780670,227.921982 
	C160.936966,227.469757 160.940369,227.408310 160.909622,227.406952 
	C162.326599,220.620361 161.075623,213.746704 161.692169,206.482788 
z"/>
<path fill="#FE6060" opacity="1.000000" stroke="none" 
	d="
M177.542633,246.675140 
	C178.157898,239.166458 178.059616,231.547638 178.081146,223.468475 
	C178.266846,222.834259 178.373657,222.661865 178.689606,222.710388 
	C178.793533,230.831619 179.732849,238.775742 177.542633,246.675140 
z"/>
<path fill="#FFEFEF" opacity="1.000000" stroke="none" 
	d="
M161.482788,206.277542 
	C162.007416,212.985092 162.371277,219.935883 161.262894,227.141235 
	C160.044800,220.432358 161.027054,213.481018 161.482788,206.277542 
z"/>
<path fill="#FFEFEF" opacity="1.000000" stroke="none" 
	d="
M160.609299,238.698532 
	C160.882309,243.254150 160.905624,247.674469 160.882538,252.563950 
	C159.018631,248.777695 160.470413,244.316879 160.050690,239.518280 
	C160.176895,238.894882 160.268234,238.729050 160.609299,238.698532 
z"/>
<path fill="#FEA7A7" opacity="1.000000" stroke="none" 
	d="
M178.958511,222.482086 
	C178.898727,222.931305 178.529892,222.973816 178.344971,222.990234 
	C178.111069,219.272018 178.062103,215.537415 178.088165,211.335175 
	C180.039490,214.467468 178.679062,218.315247 178.958511,222.482086 
z"/>
<path fill="#FF8383" opacity="1.000000" stroke="none" 
	d="
M160.947418,238.394775 
	C160.858994,238.833847 160.460754,238.908066 160.273148,238.984406 
	C159.850891,235.415131 159.556091,231.768280 160.624359,227.806488 
	C160.969925,230.965073 161.002899,234.460373 160.947418,238.394775 
z"/>
</svg>